<svg xmlns="http://www.w3.org/2000/svg" style="display: none;">
    <symbol id="icon_arenas-arena" viewBox="0 0 100 100">
      <title>01847BB6-4909-4570-B6E1-073E25F6A8BF</title><g fill="none" fill-rule="evenodd"><circle stroke="#EE3522" stroke-width="2" cx="50" cy="50" r="50"/><path d="M72.283 37.788l-3.72-2.763c-.28-.208-.658-.24-.974-.086-.318.155-.517.474-.517.822v8.258c-3.172-.948-7.79-1.4-11.52-1.615-.094-.074-.204-.13-.328-.164-.255-.067-.514-.02-.726.11-1.778-.09-3.266-.12-4.172-.133v-2.31l3.35-2.487c.233-.173.37-.448.37-.737 0-.29-.137-.564-.37-.737l-3.723-2.763c-.28-.208-.658-.24-.973-.087-.316.157-.515.476-.515.824v8.297c-.906.013-2.393.046-4.168.13-.213-.126-.472-.174-.727-.106-.124.034-.234.09-.33.163-4.55.262-10.433.877-13.382 2.318v-2.97l3.35-2.488c.234-.173.372-.447.372-.737s-.138-.563-.372-.736l-3.722-2.765c-.28-.208-.656-.24-.973-.086-.316.155-.515.474-.515.822v11.053c0 .092.007.18.024.27l1.837 16.31C29.86 67.948 48.6 68 49.398 68c.798 0 19.537-.052 19.53-4.502l1.843-16.414c.017-.088.024-.18.024-.267v-.002c0-.845-.707-1.534-1.86-2.096v-2.97l3.347-2.488c.237-.173.375-.447.375-.737s-.138-.563-.372-.737zm-21.955-2.026l1.24.92-1.24.922v-1.842zM29.86 37.604l1.242.92-1.24.923v-1.843zm25.783 6.623c2.936.17 5.417.455 7.415.786l-3.163 3.915c-.03.04-.04.083-.065.125l-.17.02c-.2.02-.394.043-.6.065-.34.033-.702.063-1.06.094-.21.018-.41.04-.626.055-.376.03-.774.054-1.17.08-.215.014-.423.03-.644.042-.412.023-.843.04-1.27.06-.033 0-.063.003-.092.003l1.445-5.246zm-6.246-.175c1.532 0 2.977.03 4.34.083l-1.487 5.403c-.034 0-.066.002-.097.004-.195.005-.383.012-.582.016-.705.013-1.428.02-2.173.02-.753 0-1.488-.007-2.2-.02-.224-.004-.43-.013-.65-.018l-1.49-5.405c1.365-.054 2.81-.083 4.34-.083zm-6.242.173l1.446 5.248c-2.087-.09-3.966-.235-5.632-.418-.024-.042-.035-.09-.067-.13l-3.16-3.912c2-.33 4.473-.617 7.415-.788zm-13.268 2.62c.27-.417 1.578-.953 3.825-1.445.026.05.04.102.076.148l2.564 3.172c-3.896-.59-6.127-1.354-6.465-1.875zM54.05 66.038c-1.445.074-2.987.118-4.653.118-1.665 0-3.206-.044-4.65-.118v-4.486c0-.508.416-.92.93-.92h7.442c.512 0 .93.412.93.92v4.486zm13.03-2.688c-.32.787-4.228 2.056-11.17 2.574v-4.372c0-1.523-1.253-2.763-2.79-2.763h-7.444c-1.537 0-2.79 1.24-2.79 2.762v4.37c-6.943-.52-10.85-1.798-11.17-2.63l-1.6-14.26c.037.016.083.03.12.045.287.124.588.243.916.354.02.007.033.014.052.02.344.115.716.22 1.098.324l.25.066c.38.098.775.19 1.186.274l.196.04c.377.077.764.148 1.16.215.08.013.163.028.244.04.432.073.873.14 1.32.2.102.015.204.028.307.04.44.06.883.115 1.33.165.02 0 .04.005.063.007.467.05.936.098 1.4.142l.304.027c.45.042.9.08 1.34.112l.233.016c.394.03.783.056 1.165.078l.253.018c.414.024.815.046 1.205.065.103.004.2.008.3.014l1.045.044.114.003c.032.003.058.003.09.005.007 0 .012.007.02.007.013 0 .024-.005.037-.005l.86.028c.067 0 .13.003.193.005.3.007.58.015.832.02l.19.004.57.01h.108c.182.003.33.005.454.005h.641c.126 0 .28-.003.47-.005.025 0 .05 0 .075-.002.182 0 .39-.005.62-.01h.152c.26-.006.553-.014.864-.02.048-.003.097-.005.147-.005.262-.007.535-.016.823-.026.034.004.067.013.103.013.02 0 .037-.018.057-.018l.092-.004h.014c.36-.013.74-.03 1.133-.048l.253-.01c.4-.02.815-.043 1.24-.067.068-.004.136-.01.205-.013.403-.024.812-.05 1.23-.083.063-.005.124-.01.187-.013.45-.034.908-.073 1.368-.113.09-.007.18-.017.27-.026.474-.043.95-.09 1.427-.143h.022c.462-.053.92-.11 1.375-.17l.287-.04c.45-.062.895-.128 1.33-.2.08-.013.155-.028.23-.04.403-.07.796-.143 1.18-.22.06-.013.124-.024.183-.037.412-.087.808-.18 1.19-.276.085-.02.165-.043.247-.065.383-.104.755-.21 1.1-.325.016-.006.03-.013.05-.018.33-.11.63-.23.92-.354.036-.017.083-.03.12-.046L67.08 63.35zm1.73-16.454c-.03.03-.058.06-.1.092-.05.04-.117.078-.182.118-.052.03-.1.063-.162.096-.08.042-.175.085-.27.127-.07.03-.135.062-.215.095-.107.044-.234.088-.358.134-.09.03-.172.064-.268.095-.138.046-.292.09-.445.136-.11.033-.21.066-.325.097-.165.046-.35.092-.534.138-.122.032-.237.063-.367.092-.2.048-.42.094-.637.14-.133.03-.262.06-.4.087-.234.048-.487.092-.736.138-.147.028-.285.054-.438.08-.255.045-.53.088-.802.13-.04.006-.076.01-.113.02l2.555-3.163c.037-.047.05-.1.076-.15 2.18.477 3.483.997 3.81 1.408-.026.03-.055.06-.087.088zm.124-7.45v-1.842l1.24.92-1.24.922z" fill="#EE3522" fill-rule="nonzero"/></g>
    </symbol>
    <symbol id="icon_arenas-people" viewBox="0 0 100 100">
      <title>BCFFBCFD-81BD-4309-A2F6-FC71BE15C3C6</title><g stroke="#EE3522" stroke-width="2" fill="none" fill-rule="evenodd"><path d="M55.726 43.68l.008-.134c.03-.458.115-.917.265-1.402.785-2.564 3.11-4.287 5.787-4.287 2.537 0 4.825 1.603 5.697 3.992.23.625.357 1.272.373 1.925v.162c0 .802-.162 1.594-.486 2.354-.442 1.047-1.156 1.94-2.07 2.59l-.17.116c-.122.08-.245.15-.348.21l-.105.062c-.123.066-.252.123-.378.18l-.16.078c-.084.035-.17.064-.347.126l-.202.076c-.088.027-.176.046-.343.085l-.238.064c-.074.014-.15.024-.222.033l-.382.06c-.82.082-1.658 0-2.425-.243-.06-.02-.116-.042-.174-.065l-.16-.06c-.074-.024-.148-.048-.222-.08-2.22-.94-3.676-3.103-3.71-5.593 0-.085.006-.166.012-.25zM35.73 41.11l.01-.177c.037-.593.15-1.186.342-1.813 1.018-3.32 4.026-5.55 7.49-5.55 3.284 0 6.245 2.076 7.373 5.167.3.81.462 1.647.484 2.493v.21c0 1.037-.212 2.063-.63 3.045-.574 1.354-1.498 2.51-2.683 3.352l-.22.15c-.155.102-.315.194-.448.272l-.137.078c-.16.086-.326.16-.49.234l-.207.1c-.106.046-.218.083-.447.163l-.262.1c-.115.033-.23.06-.445.11l-.308.082c-.095.018-.192.03-.286.042l-.495.075c-1.06.108-2.146 0-3.14-.313-.077-.025-.15-.054-.225-.084l-.208-.075c-.096-.034-.192-.064-.288-.106-2.874-1.215-4.756-4.015-4.8-7.237 0-.11.007-.215.015-.32zM27.856 65c.183-8.697 7.162-15.714 15.715-15.714 4.125 0 7.873 1.643 10.68 4.306.217.206.426.418.63.634.083.09.164.18.244.27.62.688 1.178 1.426 1.67 2.21.08.128.16.258.238.39.14.237.275.475.4.717.065.12.12.242.18.364.23.474.44.958.626 1.452.042.11.086.22.126.33.097.28.185.563.267.848.387 1.336.622 2.737.653 4.192h-31.43zm30.497-5c-.004-.012-.01-.022-.013-.034-.194-.588-.42-1.16-.672-1.718-.042-.095-.09-.187-.133-.28-.23-.485-.477-.956-.746-1.415-.064-.107-.128-.215-.194-.32-.28-.458-.582-.902-.902-1.33-.06-.08-.117-.162-.178-.24-.388-.5-.794-.982-1.23-1.438C56.24 51.165 58.918 50 61.76 50c5.55 0 10.1 4.438 10.383 10h-13.79z"/><circle cx="50" cy="50" r="50"/></g>
    </symbol>
    <symbol id="icon_arrow-slider-bg-left" viewBox="0 0 50 100">
      <title>A96E12BC-4333-4105-A118-09717BAC803C</title><g fill="none" fill-rule="evenodd" opacity=".7"><path fill="#1C262C" d="M0 0h50v100H0z"/><path d="M34 25L16 50l18 25" stroke="#FFF" stroke-width="2"/></g>
    </symbol>
    <symbol id="icon_arrow-slider-bg-right" viewBox="0 0 50 100">
      <title>D32B8811-CB19-47FD-9AC7-226EEAF2982A</title><g fill="none" fill-rule="evenodd" opacity=".7"><path fill="#1C262C" d="M50 0H0v100h50z"/><path d="M16 25l18 25-18 25" stroke="#FFF" stroke-width="2"/></g>
    </symbol>
    <symbol id="icon_blue-dark" viewBox="0 0 530 378">
      <title>B056878B-6579-4C31-999A-5DA244049457</title><g fill="none" fill-rule="evenodd"><path fill="#43B4E4" d="M.05.184v377.544h529.04V.184"/><path fill="#1E96D2" d="M529.092.186H.052V377.73L529.09.21"/><path fill="#008DCD" d="M529.092 377.718l-368.815-113.9L.05 377.733h529.042M.053 204.663V377.73l160.22-113.912"/><path fill="#1E96D2" d="M529.092.186H.052l387.706 100.922L529.092.21"/><path fill="#00A8E0" d="M.053.186l160.22 263.628 227.48-162.706M160.273 263.818L.053 377.73h211.8"/><path fill="#008DCD" d="M284.154 0l103.33 100.92L528.858 0M529.092.267L450.1 177.917l78.992 199.72"/><path fill="#00A8E0" d="M529.092.214L387.486 100.918l62.614 77L529.092.267"/><path fill="#1E96D2" d="M529.092 377.636L450.1 177.916 421.19 344.41l107.902 33.307"/><path fill="#5CBAE6" d="M387.757 101.113l33.432 243.295 28.915-166.492"/><path fill="#1E96D2" d="M529.092.267L450.1 177.917l78.992 26.733"/><path fill="#008DCD" d="M211.857.186l36.276 64.584L284.44.186"/><path fill="#00A8E0" d="M529.092 377.718l-211.024-65.18-34.81 65.195h245.834"/></g>
    </symbol>
    <symbol id="icon_cup-blue" viewBox="0 0 50 60">
      <title>561AB14C-5061-45BC-8B2E-8667ACBCF23E</title><g fill-rule="nonzero" fill="#13B5EA" opacity=".5"><path d="M42.623 2.105c-.576 0-1.17.075-1.763.22l.456 1.85c3.616-.884 6.77 1.857 6.77 5.28 0 8.013-9.16 13.92-12.98 15.03l.537 1.83C40.493 24.904 50 18.306 50 9.456c0-4.054-3.31-7.35-7.377-7.35zM1.912 9.453c0-3.42 3.153-6.166 6.77-5.277l.458-1.85C4.354 1.152 0 4.825 0 9.452c0 8.852 9.508 15.45 14.357 16.863l.537-1.83c-3.82-1.113-12.982-7.018-12.982-15.033zM28.835 34.737H22.23c-.527 0-.953.406-.953.908v3.447c0 .273.13.534.354.706.17.132.383.202.6.202.066 0 .133-.007.2-.02 1.962-.405 4.243-.405 6.204 0 .282.055.575-.01.8-.182.223-.172.353-.43.353-.706v-3.447c0-.502-.425-.908-.952-.908zm-.953 3.272c-1.525-.202-3.175-.202-4.7 0v-1.457h4.7v1.456zM38.408 54.737H12.656c-.526 0-.954.413-.954.924v3.416c0 .51.428.924.954.924h25.752c.527 0 .954-.413.954-.924V55.66c0-.51-.427-.923-.954-.923zm-.954 3.414H13.61v-1.564h23.844v1.565z"/><path d="M36.276 41.053H13.724c-.53 0-.958.41-.958.916v12.904c0 .506.43.915.958.915h22.552c.53 0 .958-.41.958-.916V41.97c0-.508-.428-.917-.958-.917zm-.96 12.905H14.684V42.885h20.634v11.073z"/><path d="M33.072 45.263h-15.08c-.536 0-.97.407-.97.91v5.548c0 .504.434.912.97.912h15.08c.536 0 .97-.41.97-.91v-5.548c0-.504-.433-.91-.97-.91zm-.97 5.547H18.96v-3.725h13.14v3.725zM41.032.47c-.3-.303-.7-.47-1.128-.47H9.036C8.61 0 8.21.166 7.91.467c-.3.302-.465.7-.463 1.126.006.636.032 1.262.06 1.975.024.576.057 1.146.096 1.713.47 6.923 2.02 13.247 4.485 18.29.363.743.755 1.47 1.164 2.16 1.883 3.18 4.04 5.46 6.412 6.782.25.138.546.156.805.053.217.008.463.008.74.008h7.275c.106.04.218.06.33.06.158 0 .316-.04.46-.12 2.37-1.32 4.53-3.602 6.412-6.782.406-.688.797-1.414 1.162-2.157 2.467-5.047 4.017-11.372 4.485-18.29.038-.568.07-1.136.094-1.717.026-.653.053-1.307.06-1.97.005-.423-.158-.823-.458-1.126zm-1.48 3.022c-.025.56-.055 1.113-.093 1.664-.452 6.68-1.94 12.766-4.302 17.598-.342.7-.71 1.382-1.09 2.028-1.604 2.708-3.467 4.747-5.405 5.92H21.21c.002.002-.63 0-.933 0-1.94-1.174-3.802-3.212-5.404-5.92-.384-.65-.75-1.33-1.092-2.028-2.36-4.83-3.848-10.915-4.3-17.598-.037-.55-.07-1.105-.095-1.75-.02-.51-.043-1.02-.052-1.537h30.272c-.01.544-.032 1.082-.054 1.622z"/><path d="M36.335 4.21c-.015.3-.033.584-.053.864-.41 5.928-1.794 11.516-3.9 15.733-.295.59-.615 1.173-.952 1.732-1.164 1.924-2.468 3.418-3.77 4.322l1.14 1.56c1.525-1.06 3.02-2.757 4.324-4.912.363-.604.71-1.23 1.025-1.866C36.36 17.21 37.815 11.37 38.242 5.2c.02-.29.037-.58.055-.89l-1.963-.1zM28.97 30.526h-6.923c-1.67 0-1.834 3.234-1.834 3.267 0 .03.194 3.05 1.88 3.05h6.923c1.64 0 1.835-3.02 1.835-3.05 0-.033-.165-3.267-1.88-3.267zm-.36 4.334h-6.156c-.13-.325-.255-.865-.26-1.066.004-.24.148-.903.29-1.286h6.095c.142.383.285 1.045.288 1.284-.003.203-.13.744-.26 1.068zM29.023 38.253c-2.217-.477-4.764-.48-6.982 0-3.142.68-5.02 2.16-5.02 3.957 0 .524.426.948.95.948h15.124c.523 0 .95-.424.95-.948 0-1.798-1.878-3.277-5.02-3.957zm-9.434 3.01c.585-.442 1.547-.874 2.852-1.157 1.955-.42 4.228-.42 6.18 0 1.305.283 2.267.715 2.853 1.156H19.59z"/></g>
    </symbol>
    <symbol id="icon_cup-bro" viewBox="0 0 50 60">
      <title>DEA45625-43C4-4965-8F91-491C7D392ACC</title><g fill="#CD7F32" fill-rule="nonzero"><path d="M42.623 2.105c-.576 0-1.17.075-1.763.22l.456 1.85c3.616-.884 6.77 1.857 6.77 5.28 0 8.013-9.16 13.92-12.98 15.03l.537 1.83C40.493 24.904 50 18.306 50 9.456c0-4.054-3.31-7.35-7.377-7.35zM1.912 9.453c0-3.42 3.153-6.166 6.77-5.277l.458-1.85C4.354 1.152 0 4.825 0 9.452c0 8.852 9.508 15.45 14.357 16.863l.537-1.83c-3.82-1.113-12.982-7.018-12.982-15.033zM28.835 34.737H22.23c-.527 0-.953.406-.953.908v3.447c0 .273.13.534.354.706.17.132.383.202.6.202.066 0 .133-.007.2-.02 1.962-.405 4.243-.405 6.204 0 .282.055.575-.01.8-.182.223-.172.353-.43.353-.706v-3.447c0-.502-.425-.908-.952-.908zm-.953 3.272c-1.525-.202-3.175-.202-4.7 0v-1.457h4.7v1.456zM38.408 54.737H12.656c-.526 0-.954.413-.954.924v3.416c0 .51.428.924.954.924h25.752c.527 0 .954-.413.954-.924V55.66c0-.51-.427-.923-.954-.923zm-.954 3.414H13.61v-1.564h23.844v1.565z"/><path d="M36.276 41.053H13.724c-.53 0-.958.41-.958.916v12.904c0 .506.43.915.958.915h22.552c.53 0 .958-.41.958-.916V41.97c0-.508-.428-.917-.958-.917zm-.96 12.905H14.684V42.885h20.634v11.073z"/><path d="M33.072 45.263h-15.08c-.536 0-.97.407-.97.91v5.548c0 .504.434.912.97.912h15.08c.536 0 .97-.41.97-.91v-5.548c0-.504-.433-.91-.97-.91zm-.97 5.547H18.96v-3.725h13.14v3.725zM41.032.47c-.3-.303-.7-.47-1.128-.47H9.036C8.61 0 8.21.166 7.91.467c-.3.302-.465.7-.463 1.126.006.636.032 1.262.06 1.975.024.576.057 1.146.096 1.713.47 6.923 2.02 13.247 4.485 18.29.363.743.755 1.47 1.164 2.16 1.883 3.18 4.04 5.46 6.412 6.782.25.138.546.156.805.053.217.008.463.008.74.008h7.275c.106.04.218.06.33.06.158 0 .316-.04.46-.12 2.37-1.32 4.53-3.602 6.412-6.782.406-.688.797-1.414 1.162-2.157 2.467-5.047 4.017-11.372 4.485-18.29.038-.568.07-1.136.094-1.717.026-.653.053-1.307.06-1.97.005-.423-.158-.823-.458-1.126zm-1.48 3.022c-.025.56-.055 1.113-.093 1.664-.452 6.68-1.94 12.766-4.302 17.598-.342.7-.71 1.382-1.09 2.028-1.604 2.708-3.467 4.747-5.405 5.92H21.21c.002.002-.63 0-.933 0-1.94-1.174-3.802-3.212-5.404-5.92-.384-.65-.75-1.33-1.092-2.028-2.36-4.83-3.848-10.915-4.3-17.598-.037-.55-.07-1.105-.095-1.75-.02-.51-.043-1.02-.052-1.537h30.272c-.01.544-.032 1.082-.054 1.622z"/><path d="M36.335 4.21c-.015.3-.033.584-.053.864-.41 5.928-1.794 11.516-3.9 15.733-.295.59-.615 1.173-.952 1.732-1.164 1.924-2.468 3.418-3.77 4.322l1.14 1.56c1.525-1.06 3.02-2.757 4.324-4.912.363-.604.71-1.23 1.025-1.866C36.36 17.21 37.815 11.37 38.242 5.2c.02-.29.037-.58.055-.89l-1.963-.1zM28.97 30.526h-6.923c-1.67 0-1.834 3.234-1.834 3.267 0 .03.194 3.05 1.88 3.05h6.923c1.64 0 1.835-3.02 1.835-3.05 0-.033-.165-3.267-1.88-3.267zm-.36 4.334h-6.156c-.13-.325-.255-.865-.26-1.066.004-.24.148-.903.29-1.286h6.095c.142.383.285 1.045.288 1.284-.003.203-.13.744-.26 1.068zM29.023 38.253c-2.217-.477-4.764-.48-6.982 0-3.142.68-5.02 2.16-5.02 3.957 0 .524.426.948.95.948h15.124c.523 0 .95-.424.95-.948 0-1.798-1.878-3.277-5.02-3.957zm-9.434 3.01c.585-.442 1.547-.874 2.852-1.157 1.955-.42 4.228-.42 6.18 0 1.305.283 2.267.715 2.853 1.156H19.59z"/></g>
    </symbol>
    <symbol id="icon_cup-gold-big" viewBox="0 0 75 90">
      <title>76D5D664-92DF-4ED0-B014-1834A9852773</title><g fill-rule="nonzero" fill="#E8B328"><path d="M63.935 3.158c-.865 0-1.756.11-2.645.33l.684 2.774c5.424-1.326 10.154 2.786 10.154 7.918 0 12.022-13.74 20.882-19.468 22.55l.804 2.744C60.74 37.354 75 27.457 75 14.18c0-6.078-4.964-11.022-11.065-11.022zM2.868 14.18c0-5.132 4.73-9.25 10.155-7.916l.687-2.776C6.53 1.73 0 7.24 0 14.18c0 13.278 14.26 23.176 21.536 25.294l.804-2.744C16.61 35.06 2.868 26.202 2.868 14.18zM43.252 52.105h-9.91c-.787 0-1.427.61-1.427 1.363v5.17c0 .41.196.8.53 1.06.257.197.574.302.898.302.1 0 .202-.01.302-.03 2.943-.608 6.364-.608 9.306 0 .424.083.864-.015 1.2-.272.335-.26.53-.648.53-1.06v-5.17c0-.754-.638-1.363-1.428-1.363zm-1.428 4.91c-2.29-.302-4.763-.304-7.052 0V54.83h7.052v2.184zM57.612 82.105H18.984c-.79 0-1.43.62-1.43 1.387v5.12c0 .768.64 1.388 1.43 1.388h38.628c.79 0 1.43-.62 1.43-1.387v-5.12c0-.768-.64-1.388-1.43-1.388zm-1.43 5.122H20.414v-2.35H56.18v2.35z"/><path d="M54.414 61.58H20.586c-.793 0-1.437.613-1.437 1.373V82.31c0 .76.643 1.374 1.436 1.374h33.828c.793 0 1.437-.615 1.437-1.374V62.953c0-.76-.64-1.374-1.436-1.374zm-1.438 19.356H22.024v-16.61h30.952v16.61z"/><path d="M49.608 67.895h-22.62c-.804 0-1.456.61-1.456 1.366v8.32c0 .757.652 1.367 1.456 1.367h22.62c.803 0 1.456-.612 1.456-1.366v-8.32c0-.754-.65-1.365-1.456-1.365zm-1.457 8.32H28.445v-5.588H48.15v5.588zM61.547.705C61.097.25 60.497 0 59.857 0H13.553c-.637 0-1.238.25-1.69.7-.45.454-.697 1.052-.694 1.69.01.953.048 1.893.092 2.962.035.864.084 1.72.142 2.57.704 10.382 3.03 19.868 6.728 27.434.544 1.113 1.132 2.204 1.745 3.24 2.825 4.77 6.06 8.19 9.62 10.172.373.207.817.234 1.206.08.327.01.697.01 1.11.01h10.914c.16.06.327.09.495.09.237 0 .474-.06.69-.18 3.557-1.978 6.794-5.4 9.62-10.172.608-1.033 1.194-2.122 1.74-3.237 3.703-7.57 6.03-17.06 6.73-27.437.057-.85.106-1.703.142-2.573.04-.98.08-1.962.09-2.954.008-.637-.236-1.237-.687-1.69zm-2.22 4.532c-.036.84-.082 1.67-.138 2.497-.678 10.022-2.91 19.15-6.453 26.397-.513 1.05-1.064 2.074-1.636 3.043-2.404 4.06-5.198 7.12-8.106 8.88H31.816c.002.002-.948 0-1.4 0-2.91-1.76-5.704-4.82-8.107-8.88-.576-.973-1.127-1.995-1.64-3.042-3.54-7.244-5.77-16.37-6.45-26.396-.056-.826-.104-1.657-.143-2.623-.03-.766-.064-1.532-.078-2.306h45.408c-.015.817-.048 1.624-.08 2.433z"/><path d="M54.503 6.316c-.023.45-.05.875-.08 1.296-.614 8.892-2.69 17.273-5.85 23.6-.442.883-.922 1.758-1.428 2.596-1.745 2.888-3.702 5.13-5.656 6.484l1.708 2.34c2.29-1.588 4.53-4.135 6.487-7.367.546-.905 1.064-1.847 1.54-2.798 3.318-6.652 5.498-15.41 6.14-24.666.03-.437.055-.87.082-1.335l-2.944-.15zM43.456 45.79H33.07c-2.502 0-2.75 4.85-2.75 4.9 0 .045.29 4.573 2.818 4.573h10.387c2.46 0 2.752-4.528 2.752-4.574 0-.05-.25-4.9-2.82-4.9zm-.543 6.5H33.68c-.192-.487-.38-1.298-.387-1.6.004-.36.22-1.354.433-1.927h9.143c.213.573.427 1.566.43 1.925-.003.304-.193 1.116-.387 1.602zM43.534 57.38c-3.325-.716-7.146-.718-10.472 0-4.715 1.02-7.53 3.24-7.53 5.935 0 .786.638 1.422 1.423 1.422H49.64c.786 0 1.424-.636 1.424-1.422 0-2.698-2.815-4.916-7.53-5.935zm-14.15 4.513c.88-.66 2.322-1.31 4.28-1.733 2.932-.633 6.34-.633 9.268 0 1.958.423 3.4 1.072 4.28 1.733h-17.83z"/></g>
    </symbol>
    <symbol id="icon_cup-gold" viewBox="0 0 50 60">
      <title>1B2838EE-7A1B-407A-8DEA-A0E16794138C</title><g fill="#E8B328" fill-rule="nonzero"><path d="M42.623 2.105c-.576 0-1.17.075-1.763.22l.456 1.85c3.616-.884 6.77 1.857 6.77 5.28 0 8.013-9.16 13.92-12.98 15.03l.537 1.83C40.493 24.904 50 18.306 50 9.456c0-4.054-3.31-7.35-7.377-7.35zM1.912 9.453c0-3.42 3.153-6.166 6.77-5.277l.458-1.85C4.354 1.152 0 4.825 0 9.452c0 8.852 9.508 15.45 14.357 16.863l.537-1.83c-3.82-1.113-12.982-7.018-12.982-15.033zM28.835 34.737H22.23c-.527 0-.953.406-.953.908v3.447c0 .273.13.534.354.706.17.132.383.202.6.202.066 0 .133-.007.2-.02 1.962-.405 4.243-.405 6.204 0 .282.055.575-.01.8-.182.223-.172.353-.43.353-.706v-3.447c0-.502-.425-.908-.952-.908zm-.953 3.272c-1.525-.202-3.175-.202-4.7 0v-1.457h4.7v1.456zM38.408 54.737H12.656c-.526 0-.954.413-.954.924v3.416c0 .51.428.924.954.924h25.752c.527 0 .954-.413.954-.924V55.66c0-.51-.427-.923-.954-.923zm-.954 3.414H13.61v-1.564h23.844v1.565z"/><path d="M36.276 41.053H13.724c-.53 0-.958.41-.958.916v12.904c0 .506.43.915.958.915h22.552c.53 0 .958-.41.958-.916V41.97c0-.508-.428-.917-.958-.917zm-.96 12.905H14.684V42.885h20.634v11.073z"/><path d="M33.072 45.263h-15.08c-.536 0-.97.407-.97.91v5.548c0 .504.434.912.97.912h15.08c.536 0 .97-.41.97-.91v-5.548c0-.504-.433-.91-.97-.91zm-.97 5.547H18.96v-3.725h13.14v3.725zM41.032.47c-.3-.303-.7-.47-1.128-.47H9.036C8.61 0 8.21.166 7.91.467c-.3.302-.465.7-.463 1.126.006.636.032 1.262.06 1.975.024.576.057 1.146.096 1.713.47 6.923 2.02 13.247 4.485 18.29.363.743.755 1.47 1.164 2.16 1.883 3.18 4.04 5.46 6.412 6.782.25.138.546.156.805.053.217.008.463.008.74.008h7.275c.106.04.218.06.33.06.158 0 .316-.04.46-.12 2.37-1.32 4.53-3.602 6.412-6.782.406-.688.797-1.414 1.162-2.157 2.467-5.047 4.017-11.372 4.485-18.29.038-.568.07-1.136.094-1.717.026-.653.053-1.307.06-1.97.005-.423-.158-.823-.458-1.126zm-1.48 3.022c-.025.56-.055 1.113-.093 1.664-.452 6.68-1.94 12.766-4.302 17.598-.342.7-.71 1.382-1.09 2.028-1.604 2.708-3.467 4.747-5.405 5.92H21.21c.002.002-.63 0-.933 0-1.94-1.174-3.802-3.212-5.404-5.92-.384-.65-.75-1.33-1.092-2.028-2.36-4.83-3.848-10.915-4.3-17.598-.037-.55-.07-1.105-.095-1.75-.02-.51-.043-1.02-.052-1.537h30.272c-.01.544-.032 1.082-.054 1.622z"/><path d="M36.335 4.21c-.015.3-.033.584-.053.864-.41 5.928-1.794 11.516-3.9 15.733-.295.59-.615 1.173-.952 1.732-1.164 1.924-2.468 3.418-3.77 4.322l1.14 1.56c1.525-1.06 3.02-2.757 4.324-4.912.363-.604.71-1.23 1.025-1.866C36.36 17.21 37.815 11.37 38.242 5.2c.02-.29.037-.58.055-.89l-1.963-.1zM28.97 30.526h-6.923c-1.67 0-1.834 3.234-1.834 3.267 0 .03.194 3.05 1.88 3.05h6.923c1.64 0 1.835-3.02 1.835-3.05 0-.033-.165-3.267-1.88-3.267zm-.36 4.334h-6.156c-.13-.325-.255-.865-.26-1.066.004-.24.148-.903.29-1.286h6.095c.142.383.285 1.045.288 1.284-.003.203-.13.744-.26 1.068zM29.023 38.253c-2.217-.477-4.764-.48-6.982 0-3.142.68-5.02 2.16-5.02 3.957 0 .524.426.948.95.948h15.124c.523 0 .95-.424.95-.948 0-1.798-1.878-3.277-5.02-3.957zm-9.434 3.01c.585-.442 1.547-.874 2.852-1.157 1.955-.42 4.228-.42 6.18 0 1.305.283 2.267.715 2.853 1.156H19.59z"/></g>
    </symbol>
    <symbol id="icon_cup-silver" viewBox="0 0 50 60">
      <title>FCA6506F-9534-4EE0-A14D-8C8DCBC469A0</title><g fill="#A6ACAE" fill-rule="nonzero"><path d="M42.623 2.105c-.576 0-1.17.075-1.763.22l.456 1.85c3.616-.884 6.77 1.857 6.77 5.28 0 8.013-9.16 13.92-12.98 15.03l.537 1.83C40.493 24.904 50 18.306 50 9.456c0-4.054-3.31-7.35-7.377-7.35zM1.912 9.453c0-3.42 3.153-6.166 6.77-5.277l.458-1.85C4.354 1.152 0 4.825 0 9.452c0 8.852 9.508 15.45 14.357 16.863l.537-1.83c-3.82-1.113-12.982-7.018-12.982-15.033zM28.835 34.737H22.23c-.527 0-.953.406-.953.908v3.447c0 .273.13.534.354.706.17.132.383.202.6.202.066 0 .133-.007.2-.02 1.962-.405 4.243-.405 6.204 0 .282.055.575-.01.8-.182.223-.172.353-.43.353-.706v-3.447c0-.502-.425-.908-.952-.908zm-.953 3.272c-1.525-.202-3.175-.202-4.7 0v-1.457h4.7v1.456zM38.408 54.737H12.656c-.526 0-.954.413-.954.924v3.416c0 .51.428.924.954.924h25.752c.527 0 .954-.413.954-.924V55.66c0-.51-.427-.923-.954-.923zm-.954 3.414H13.61v-1.564h23.844v1.565z"/><path d="M36.276 41.053H13.724c-.53 0-.958.41-.958.916v12.904c0 .506.43.915.958.915h22.552c.53 0 .958-.41.958-.916V41.97c0-.508-.428-.917-.958-.917zm-.96 12.905H14.684V42.885h20.634v11.073z"/><path d="M33.072 45.263h-15.08c-.536 0-.97.407-.97.91v5.548c0 .504.434.912.97.912h15.08c.536 0 .97-.41.97-.91v-5.548c0-.504-.433-.91-.97-.91zm-.97 5.547H18.96v-3.725h13.14v3.725zM41.032.47c-.3-.303-.7-.47-1.128-.47H9.036C8.61 0 8.21.166 7.91.467c-.3.302-.465.7-.463 1.126.006.636.032 1.262.06 1.975.024.576.057 1.146.096 1.713.47 6.923 2.02 13.247 4.485 18.29.363.743.755 1.47 1.164 2.16 1.883 3.18 4.04 5.46 6.412 6.782.25.138.546.156.805.053.217.008.463.008.74.008h7.275c.106.04.218.06.33.06.158 0 .316-.04.46-.12 2.37-1.32 4.53-3.602 6.412-6.782.406-.688.797-1.414 1.162-2.157 2.467-5.047 4.017-11.372 4.485-18.29.038-.568.07-1.136.094-1.717.026-.653.053-1.307.06-1.97.005-.423-.158-.823-.458-1.126zm-1.48 3.022c-.025.56-.055 1.113-.093 1.664-.452 6.68-1.94 12.766-4.302 17.598-.342.7-.71 1.382-1.09 2.028-1.604 2.708-3.467 4.747-5.405 5.92H21.21c.002.002-.63 0-.933 0-1.94-1.174-3.802-3.212-5.404-5.92-.384-.65-.75-1.33-1.092-2.028-2.36-4.83-3.848-10.915-4.3-17.598-.037-.55-.07-1.105-.095-1.75-.02-.51-.043-1.02-.052-1.537h30.272c-.01.544-.032 1.082-.054 1.622z"/><path d="M36.335 4.21c-.015.3-.033.584-.053.864-.41 5.928-1.794 11.516-3.9 15.733-.295.59-.615 1.173-.952 1.732-1.164 1.924-2.468 3.418-3.77 4.322l1.14 1.56c1.525-1.06 3.02-2.757 4.324-4.912.363-.604.71-1.23 1.025-1.866C36.36 17.21 37.815 11.37 38.242 5.2c.02-.29.037-.58.055-.89l-1.963-.1zM28.97 30.526h-6.923c-1.67 0-1.834 3.234-1.834 3.267 0 .03.194 3.05 1.88 3.05h6.923c1.64 0 1.835-3.02 1.835-3.05 0-.033-.165-3.267-1.88-3.267zm-.36 4.334h-6.156c-.13-.325-.255-.865-.26-1.066.004-.24.148-.903.29-1.286h6.095c.142.383.285 1.045.288 1.284-.003.203-.13.744-.26 1.068zM29.023 38.253c-2.217-.477-4.764-.48-6.982 0-3.142.68-5.02 2.16-5.02 3.957 0 .524.426.948.95.948h15.124c.523 0 .95-.424.95-.948 0-1.798-1.878-3.277-5.02-3.957zm-9.434 3.01c.585-.442 1.547-.874 2.852-1.157 1.955-.42 4.228-.42 6.18 0 1.305.283 2.267.715 2.853 1.156H19.59z"/></g>
    </symbol>
    <symbol id="icon_download" viewBox="0 0 15 15">
      <title>E1868EF6-2048-4319-9774-8DDEBA2C46DC</title><g fill-rule="nonzero" fill="#13B5EA"><path d="M0 13.125h15V15H0M7.5 12.188L12.188 7.5H9.374V0h-3.75v7.5H2.812"/></g>
    </symbol>
    <symbol id="icon_flag-bl" viewBox="0 0 15 10">
      <title>flag/bl</title><g fill="none" fill-rule="evenodd"><path fill="#C8313E" fill-rule="nonzero" d="M.002.002h15v9.996h-15z"/><path fill="#4AA657" fill-rule="nonzero" d="M.002 6.666h15v3.332h-15z"/><path fill="#FFF" fill-rule="nonzero" d="M.002.002h1.875v9.996H.002z"/><g fill="#C8313E"><path d="M.328.002h.244v.164h.082V.33h.08v.164h.083v.164h.08v.164h-.08v.163H.735v.164h-.08v.163H.57v.164h-.08v.164H.408v-.163H.327v-.164H.246V1.15h-.08V.984H.082V.822h-.08V.658h.08V.494h.082V.33h.08V.166H.33V.002zm.08.328h.083v.164h.082v.164h.082V.82H.572v.165h-.08v.164H.408V.984H.327V.82H.246V.66h.082V.494h.08V.33zm0 .327h.17v.2h-.17v-.2zM.003.167H.17v.2H.002v-.2zm0 .982H.17v.2H.002v-.2zM.898 0h.17V.33h-.17V.002zm0 1.147h.17v.327h-.17V1.15zm-.733.327h.08v.164H.33v.164h.08v.164H.33v.164H.246v.164h-.08v-.164H.082v-.164h-.08v-.164h.08V1.64h.082v-.163zm0 .327h.168v.2H.165v-.2zm.49-.327h.08v.164h.082v.164h.08v.164h-.08v.164H.735v.164h-.08v-.164H.57v-.164h-.08v-.164h.08V1.64h.082v-.163zm0 .327H.82v.2H.654v-.2zM0 2.46H.17v.2H.002v-.2zm.896-.164h.17v.328h-.17v-.328zm-.896.655h.08V2.79h.083v-.164h.08V2.46H.33v-.164h.08v-.164h.083v.164h.082v.164h.082v.164h.08v.164h.083v.163H.9v.165h.047v.656H.9v.165H.816v.163H.735v.164h-.08v.164H.57v.164h-.08v.426H.327v-.098H.246v-.164h-.08V4.59H.082v-.164h-.08v-.49h.08v.163h.082v.162h.08v.164H.33v-.164h.08V4.1h.083v-.165h.082V3.77h.082v-.163h.08v-.164h-.08V3.28H.572v-.165H.328v.164H.49v.163H.41v.164H.327v.164H.246v-.163h-.08v-.164H.082V3.28h-.08v-.33zm0 .657H.17v.2H.002v-.2zm.896.49h.17v.2h-.17v-.2zm-.163.33h.082v.163h.08v.164h.05v.262h-.05v-.098h-.08v-.164H.735v-.328zm-.163.49h.17v.2H.57v-.2z"/><path d="M1.55.002h-.244v.164h-.08V.33h-.083v.164h-.08v.164H.98v.164h.082v.163h.08v.164h.083v.163h.08v.164h.083v.164h.08v-.163h.083v-.164h.082V1.15h.082V.984h.08V.822h.083V.658h-.082V.494h-.08V.33H1.63V.166h-.08V.002zM1.47.33h-.082v.164h-.082v.164h-.08V.82h.08v.165h.082v.164h.08V.984h.083V.82h.082V.66h-.08V.494h-.083V.33zm0 .327H1.3v.2h.17v-.2zm.407-.49h-.17v.2h.17v-.2zm0 .982h-.17v.2h.17v-.2zM.98 0H.812V.33H.98V.002zm0 1.147H.812v.327H.98V1.15zm.734.327h-.082v.164h-.08v.164h-.083v.164h.08v.164h.082v.164h.082v-.164h.08v-.164h.083v-.164h-.082V1.64h-.08v-.163zm0 .327h-.17v.2h.17v-.2zm-.49-.327h-.08v.164H1.06v.164H.98v.164h.082v.164h.08v.164h.083v-.164h.08v-.164h.083v-.164h-.082V1.64h-.08v-.163zm0 .327h-.168v.2h.17v-.2zm.653.656h-.17v.2h.17v-.2zM.98 2.296H.812v.328H.98v-.328zm.897.655h-.082V2.79h-.08v-.164H1.63V2.46h-.08v-.164h-.083v-.164h-.082v.164h-.082v.164h-.08v.164h-.083v.164h-.08v.163H.98v.165H.93v.656h.05v.165h.082v.163h.08v.164h.083v.164h.08v.164h.083v.426h.163v-.098h.082v-.164h.082V4.59h.08v-.164h.083v-.49h-.082v.163h-.08v.162H1.63v.164h-.08v-.164h-.083V4.1h-.082v-.165h-.082V3.77h-.08v-.163h-.083v-.164h.082V3.28h.08v-.165h.246v.164H1.39v.163h.08v.164h.083v.164h.082v-.163h.082v-.164h.08V3.28h.083v-.33zm0 .657h-.17v.2h.17v-.2zm-.897.49H.812v.2H.98v-.2zm.163.33h-.08v.163H.98v.164H.93v.262h.05v-.098h.082v-.164h.08v-.328zm.163.49h-.168v.2h.168v-.2z"/></g><g fill="#C8313E"><path d="M.328 9.998h.244v-.164h.082V9.67h.08v-.164h.083v-.164h.08v-.164h-.08v-.163H.735V8.85h-.08v-.163H.57v-.164h-.08V8.36H.408v.163H.327v.164H.246v.164h-.08v.165H.082v.163h-.08v.164h.08v.164h.082v.164h.08v.164H.33v.164zm.08-.328h.083v-.164h.082v-.164h.082V9.18H.572v-.165h-.08V8.85H.408v.165H.327v.164H.246v.162h.082v.164h.08v.164zm0-.327h.17v-.2h-.17v.2zm-.406.49H.17v-.2H.002v.2zm0-.982H.17v-.2H.002v.2zM.898 10h.17V9.67h-.17v.328zm0-1.147h.17v-.327h-.17v.328zm-.733-.327h.08V8.36H.33v-.164h.08v-.164H.33v-.164H.246v-.164h-.08v.164H.082v.164h-.08v.164h.08v.163h.082v.163zm0-.327h.168v-.2H.165v.2zm.49.327h.08V8.36h.082v-.164h.08v-.164h-.08v-.164H.735v-.164h-.08v.164H.57v.164h-.08v.164h.08v.163h.082v.163zm0-.327H.82v-.2H.654v.2zM0 7.54H.17v-.2H.002v.2zm.896.164h.17v-.328h-.17v.328zM.002 7.05h.08v.162h.083v.164h.08v.164H.33v.164h.08v.164h.083v-.164h.082V7.54h.082v-.164h.08v-.164h.083V7.05H.9v-.165h.047V6.23H.9v-.165H.816v-.163H.735v-.164h-.08v-.164H.57V5.41h-.08v-.426H.327v.098H.246v.164h-.08v.164H.082v.164h-.08v.49h.08v-.163h.082V5.74h.08v-.164H.33v.164h.08V5.9h.083v.165h.082v.164h.082v.163h.08v.164h-.08v.164H.572v.165H.328V6.72H.49v-.163H.41v-.164H.327V6.23H.246v.163h-.08v.164H.082v.164h-.08v.33zm0-.657H.17v-.2H.002v.2zm.896-.49h.17v-.2h-.17v.2zm-.163-.33h.082V5.41h.08v-.164h.05v-.262h-.05v.098h-.08v.164H.735v.328zm-.163-.49h.17v-.2H.57v.2z"/><path d="M1.55 9.998h-.244v-.164h-.08V9.67h-.083v-.164h-.08v-.164H.98v-.164h.082v-.163h.08V8.85h.083v-.163h.08v-.164h.083V8.36h.08v.163h.083v.164h.082v.164h.082v.165h.08v.163h.083v.164h-.082v.164h-.08v.164H1.63v.164h-.08v.164zm-.08-.328h-.082v-.164h-.082v-.164h-.08V9.18h.08v-.165h.082V8.85h.08v.165h.083v.164h.082v.162h-.08v.164h-.083v.164zm0-.327H1.3v-.2h.17v.2zm.407.49h-.17v-.2h.17v.2zm0-.982h-.17v-.2h.17v.2zM.98 10H.812V9.67H.98v.328zm0-1.147H.812v-.327H.98v.328zm.734-.327h-.082V8.36h-.08v-.164h-.083v-.164h.08v-.164h.082v-.164h.082v.164h.08v.164h.083v.164h-.082v.163h-.08v.163zm0-.327h-.17v-.2h.17v.2zm-.49.327h-.08V8.36H1.06v-.164H.98v-.164h.082v-.164h.08v-.164h.083v.164h.08v.164h.083v.164h-.082v.163h-.08v.163zm0-.327h-.168v-.2h.17v.2zm.653-.656h-.17v-.2h.17v.2zm-.897.164H.812v-.328H.98v.328zm.897-.655h-.082v.162h-.08v.164H1.63v.164h-.08v.164h-.083v.164h-.082v-.164h-.082V7.54h-.08v-.164h-.083v-.164h-.08V7.05H.98v-.165H.93V6.23h.05v-.165h.082v-.163h.08v-.164h.083v-.164h.08V5.41h.083v-.426h.163v.098h.082v.164h.082v.164h.08v.164h.083v.49h-.082v-.163h-.08V5.74H1.63v-.164h-.08v.164h-.083V5.9h-.082v.165h-.082v.164h-.08v.163h-.083v.164h.082v.164h.08v.165h.246V6.72H1.39v-.163h.08v-.164h.083V6.23h.082v.163h.082v.164h.08v.164h.083v.33zm0-.657h-.17v-.2h.17v.2zm-.897-.49H.812v-.2H.98v.2zm.163-.33h-.08V5.41H.98v-.164H.93v-.262h.05v.098h.082v.164h.08v.328zm.163-.49h-.168v-.2h.168v.2z"/></g></g>
    </symbol>
    <symbol id="icon_flag-fin" viewBox="0 0 15 10">
      <title>flag/fin</title><g fill-rule="nonzero" fill="none"><path fill="#FFF" d="M0 0h15v10H0z"/><path fill="#3A75C4" d="M4.167 0h2.5v10h-2.5z"/><path fill="#3A75C4" d="M0 3.636h15v2.727H0z"/></g>
    </symbol>
    <symbol id="icon_flag-ger" viewBox="0 0 15 10">
      <title>flag/gr</title><g fill-rule="nonzero" fill="none"><path fill="#000" d="M0 0h15v3H0z"/><path fill="#D00" d="M0 3h15v4H0z"/><path fill="#FFCE00" d="M0 7h15v3H0z"/></g>
    </symbol>
    <symbol id="icon_flag-kz" viewBox="0 0 15 10">
      <title>flag/kz</title><g fill-rule="nonzero" fill="none"><path fill="#00AFCA" d="M0 0h15v10H0z"/><g transform="translate(4.945 .618)" fill="#FEC50C"><ellipse cx="3.309" cy="3.2" rx="1.261" ry="1.223"/><path d="M4.75 3.347c.002.182.047.25.102.25.073 0 .42-.25.42-.25s-.347-.25-.42-.25c-.055 0-.1.068-.1.25zM3.163 4.59c-.182 0-.25.046-.25.1 0 .074.25.42.25.42s.25-.346.25-.42c0-.054-.07-.1-.25-.1zM1.868 3.053c0-.182-.047-.25-.1-.25-.074 0-.42.25-.42.25s.346.25.42.25c.053 0 .1-.068.1-.25zM4.585 3.887c-.07.17-.053.25-.002.27.067.028.482-.07.482-.07s-.224-.364-.29-.392c-.052-.02-.12.024-.19.192zM2.642 4.428c-.17-.07-.25-.053-.27-.002-.028.067.07.482.07.482s.364-.224.392-.29c.02-.052-.024-.12-.192-.19zM2.034 2.513c.068-.17.053-.25.002-.27-.067-.028-.483.07-.483.07s.225.364.292.392c.05.02.12-.024.19-.192z"/><g><path d="M4.225 4.323c-.128.13-.144.21-.106.248.05.053.472.12.472.12s-.068-.42-.12-.472c-.038-.04-.12-.023-.247.105zM2.223 4.08c-.13-.13-.21-.145-.25-.106-.05.05-.118.473-.118.473s.422-.068.473-.12c.04-.038.023-.12-.105-.248zM2.394 2.077c.128-.13.144-.21.105-.248-.052-.053-.474-.12-.474-.12s.068.42.12.472c.038.04.12.023.248-.105z"/></g><g><path d="M3.725 4.588c-.167.07-.213.14-.192.19.028.066.39.29.39.29s.1-.415.072-.482c-.02-.05-.102-.068-.27.002zM1.97 3.596c-.072-.167-.14-.213-.19-.192-.067.028-.292.39-.292.39s.416.1.483.072c.052-.02.068-.102 0-.27zM2.893 1.812c.168-.07.214-.14.193-.19-.028-.066-.392-.29-.392-.29s-.098.415-.07.482c.02.05.1.068.27-.002z"/></g><g><path d="M4.695 3.625c-.035.18-.004.255.05.265.07.014.46-.163.46-.163s-.29-.313-.363-.327c-.053-.01-.112.047-.147.225zM2.894 4.535c-.178-.035-.254-.004-.265.05-.015.07.163.46.163.46s.312-.29.327-.363c.01-.053-.048-.112-.226-.147zM1.924 2.775c.035-.18.003-.255-.05-.265-.07-.014-.46.163-.46.163s.29.313.362.327c.054.01.113-.047.148-.225zM4.426 4.123c-.1.152-.1.234-.055.264.062.04.49.025.49.025s-.15-.4-.21-.44c-.046-.03-.123 0-.224.15zM2.415 4.274c-.152-.1-.234-.1-.264-.055-.04.06-.024.487-.024.487s.4-.15.44-.21c.03-.045 0-.122-.15-.223zM2.192 2.277c.1-.152.1-.234.055-.264-.06-.04-.487-.025-.487-.025s.15.4.21.44c.045.03.12 0 .222-.15z"/><g><path d="M3.988 4.48c-.15.102-.182.178-.152.223.04.06.44.21.44.21s.016-.427-.024-.488c-.03-.045-.113-.046-.264.055zM2.072 3.85c-.102-.15-.178-.182-.223-.152-.06.04-.21.44-.21.44s.426.016.487-.024c.045-.03.046-.113-.055-.264zM2.63 1.92c.15-.102.183-.178.152-.223-.04-.06-.44-.21-.44-.21s-.016.427.025.488c.03.045.112.046.263-.055z"/></g><g><path d="M3.446 4.643c-.178.036-.236.094-.225.147.015.072.328.363.328.363s.177-.39.163-.46c-.01-.054-.085-.086-.264-.05zM1.917 3.327c-.036-.178-.094-.236-.147-.225-.072.014-.363.327-.363.327s.39.176.46.162c.054-.01.086-.087.05-.265zM3.172 1.757c.178-.036.236-.094.226-.147-.015-.072-.327-.363-.327-.363s-.177.39-.163.46c.01.054.087.086.265.05z"/></g></g></g><g fill="#FEC50C"><path d="M9.49 6.782c-.07.04-.12-.03-.177-.052-.04.022-.044.093-.082.127-.045.05-.1-.014-.096-.063-.054.044-.082.144-.17.13-.04-.032-.072-.1-.104-.022-.025.038-.094.093-.13.035-.01-.05-.037-.112-.066-.03-.02.057-.083.1-.144.074-.034-.025.026-.124-.016-.117-.064.04-.1.143-.19.135-.034-.038.02-.102-.017-.143-.045.055-.094.137-.172.143-.037-.03.002-.114-.022-.126-.08.046-.163.128-.263.102.04-.144.202-.195.338-.206.235-.028.483.024.71-.06.036-.02.124-.05.093-.1-.027-.04.073-.025.083-.07-.006-.06.046-.052.097-.057.23-.008.455.038.682.046.018.108-.105.184-.205.15-.047.008-.118-.105-.104-.023-.01.043-.003.1-.044.13M7.544 6.56c.053.048.09-.007.14-.028.165-.055.31-.152.453-.248.086-.07.16-.16.277-.182.227-.067.467-.058.695-.12.173-.23.467-.312.713-.444.055-.016.077-.06.094-.11.094-.143.222-.27.374-.358.073-.038.158-.06.24-.042-.007.094-.062.177-.13.24.056 0 .103-.033.158-.03.02.095-.088.145-.145.205.032.007.153.016.087.047-.084.057-.18.096-.26.162.073.012.082.027.008.052-.04.026-.115.035-.123.086.055.032-.025.064-.055.075-.06.013-.12.038-.042.08-.03.044-.093.053-.144.05.015.048.038.102-.028.124-.146.106-.318.184-.502.202.23.017.467-.024.663-.145.026-.03.162-.062.086-.087-.036-.014-.112-.03-.118-.057.107-.064.24-.04.356-.08.004-.035-.087-.025-.12-.033-.08-.006-.075-.026.002-.034.097-.025.208-.03.29-.09-.067-.03-.15-.005-.222-.03.12-.05.264-.056.372-.133.05-.054-.063-.037-.096-.036-.067.012-.098-.02-.022-.046.13-.092.295-.153.386-.288.022-.03.05-.12-.018-.088-.09.03-.17.128-.274.098.204-.153.398-.328.537-.54.007-.06-.092-.067-.118-.02-.13.123-.25.267-.417.344.16-.15.294-.328.41-.513.024-.054.09-.12.055-.18-.06-.048-.132-.005-.162.05-.102.13-.18.28-.31.385.115-.212.233-.438.236-.682 0-.05-.01-.125-.082-.115-.056.01-.043.09-.066.133-.05.167-.074.347-.178.494.023-.136.064-.277.033-.415-.015-.06-.117-.034-.104.026-.122.6-.536 1.123-1.078 1.425-.248.137-.525.224-.807.264-.076.016-.158.007-.23.032-.176.13-.282.348-.505.416-.1.048-.23.058-.3.148-.007.01-.008.025-.008.037"/><path d="M8.21 5.954c-.032.058-.05.124-.094.176-.127-.112-.31-.108-.472-.116-.133-.007-.277-.02-.38-.11-.108-.086-.196-.198-.317-.268-.11-.03-.222-.065-.31-.14-.19-.148-.3-.37-.484-.525-.035-.033-.077-.06-.116-.088-.038.01-.02.088-.067.048-.025-.017-.088-.02-.093.005.056.072.113.155.12.248-.038.003-.106-.008-.126.006.053.073.118.14.193.192-.036.005-.106.002-.12.016.074.06.154.12.25.134.02.025-.028.074.013.096.024.01.102.025.048.052-.037.024-.023.08.024.08.03.014.098.018.103.044-.025.026-.108.057-.038.082.066.035.142.06.217.06-.04.032-.086.05-.124.078.173.1.366.164.557.227.076.026.152.048.23.063-.228-.013-.448-.078-.656-.168-.108-.046-.217-.09-.327-.13.048-.024.104-.03.154-.052-.104-.02-.218-.026-.31-.082.014-.023.068-.025.097-.037.057-.013.09-.028.013-.033-.08-.02-.17-.01-.24-.058.006-.027.078-.018.108-.03.038-.006.08-.01.11-.035-.122-.05-.282-.015-.377-.12-.022-.04.068-.007.094-.013.065 0 .136.02.198-.006-.178-.075-.368-.146-.503-.286-.015-.022-.06-.084-.024-.09.106.012.182.124.294.107.015-.02-.065-.053-.085-.08-.164-.138-.324-.286-.44-.465-.007-.06.09-.07.115-.023.126.117.24.254.396.335.056.026-.032-.03-.043-.052-.145-.163-.283-.335-.384-.527-.017-.034-.047-.097.007-.115.054-.027.108.01.136.054.106.13.184.285.317.393-.113-.212-.234-.436-.237-.68.003-.047.006-.12.072-.117.056-.008.047.06.065.094.055.18.08.374.19.532-.025-.134-.06-.27-.037-.407.005-.044.057-.057.09-.03.028.064.034.144.058.213.143.468.46.88.873 1.157.34.226.744.36 1.156.385.036.003.073.004.11.006"/></g><g fill="#FEC50C"><path d="M1.125.682s-.09-.08-.12-.04c-.05.065.15.393.15.51 0 .19-.117.24-.262.267-.097.018-.255-.008-.255-.008.03-.043.05-.056.1-.06-.057-.03-.114-.1-.114-.205 0-.163.063-.23.063-.414C.687.63.61.5.61.5c.136.016.204.153.166.262.02.004.04-.002.058-.02C.844.773.828.81.807.84c.017.01.03.003.057-.003C.86.867.844.9.802.932c.123-.034.2.06.2.156 0 .073-.05.125-.095.125-.015 0-.038-.006-.05-.016-.01.02-.004.047.005.067-.034-.01-.056-.032-.04-.077-.027-.003-.048-.012-.062-.03.015-.02.036-.032.06-.03-.018-.043.004-.067.035-.086 0 0-.02.086.03.086.023 0 .043-.008.043-.044 0-.03-.025-.074-.084-.072-.058.003-.106.044-.106.145 0 .093.07.14.162.143.082.002.145-.046.145-.138C1.045 1.037.88.758.88.648.88.566.95.52 1.017.52c.087 0 .16.093.16.093l-.05.07z"/><path d="M1.144 2.9c0 .203-.17.31-.305.31-.18 0-.278-.118-.278-.27 0-.087.015-.14.052-.223 0 0 .298-.67.414-.927.015-.032.02-.07.02-.123 0-.083-.076-.15-.154-.153-.07-.002-.15.072-.15.156 0 .102.05.147.1.147.062 0 .087-.027.087-.074 0-.033-.014-.047-.035-.047-.053 0-.038.077-.038.077C.83 1.767.81 1.738.82 1.703c-.018-.006-.036-.017-.05-.034.014-.016.03-.028.05-.032-.01-.044.006-.066.042-.075-.008.017-.008.033-.006.048.057-.017.144.01.144.116 0 .105-.067.194-.194.17.03.017.045.05.05.084-.024-.01-.05-.01-.05-.01.015.027.035.052.035.107-.023-.012-.045-.033-.075-.02.047.1-.01.238-.158.27.054-.068.08-.14.08-.214 0-.238-.06-.278-.06-.443 0-.07.032-.144.097-.194v.002c-.043-.012-.07-.035-.086-.066.098-.03.242-.03.32.003.087.01.15.084.167.12.018.038.053.173 0 .293-.06.133-.335.764-.42.963-.02.043-.03.088-.03.136 0 .122.103.164.162.164.07 0 .14-.057.14-.13 0-.045-.022-.073-.055-.073-.08 0-.074.073-.06.12-.048-.025-.077-.068-.07-.113C.766 2.89.74 2.876.715 2.846c.02-.026.043-.046.08-.047-.016-.07.027-.1.07-.117-.014.052-.023.11.058.11.06 0 .106.012.133.053 0-.055.006-.273.006-.273.005-.082-.1-.08-.167-.055.025-.094.077-.145.196-.132-.03-.014-.06-.043-.06-.1 0-.076.057-.162.095-.187l.02.8z"/><path d="M1.144 3.513c0-.205-.17-.31-.305-.31-.18 0-.278.116-.278.27 0 .085.015.14.052.222l.414.927c.015.032.02.07.02.123 0 .083-.076.15-.154.153-.07.002-.15-.072-.15-.156 0-.102.05-.148.1-.148.062 0 .087.028.087.075 0 .03-.014.046-.035.046-.053 0-.038-.078-.038-.078-.026.007-.048.036-.036.072-.018.005-.036.016-.05.033.014.015.03.027.05.03-.01.045.006.067.042.076C.854 4.83.854 4.815.856 4.8.913 4.82 1 4.79 1 4.686c0-.105-.067-.193-.194-.17.03-.016.045-.048.05-.083-.024.01-.05.01-.05.01.015-.028.035-.052.035-.107-.023.012-.045.033-.075.02.047-.1-.01-.238-.158-.27.054.067.08.14.08.214 0 .237-.06.277-.06.442 0 .07.032.144.097.194v-.003C.68 4.946.654 4.97.638 5c.098.03.242.03.32-.003.087-.01.15-.084.167-.12.018-.04.053-.173 0-.294-.06-.132-.335-.764-.42-.962-.02-.04-.03-.086-.03-.134 0-.122.103-.164.162-.164.07 0 .14.057.14.13 0 .045-.022.072-.055.072-.08 0-.074-.072-.06-.118-.048.024-.077.066-.07.11-.027.006-.053.02-.078.05.02.026.043.046.08.047-.016.07.027.1.07.115-.014-.05-.023-.11.058-.11.06 0 .106-.01.133-.052 0 .055.006.273.006.273.005.08-.1.078-.167.054.025.094.077.145.196.132-.03.013-.06.043-.06.1 0 .076.057.16.095.186l.02-.8z"/><g><path d="M1.125.682s.09-.08.12-.04c.05.065-.15.393-.15.51 0 .19.117.24.262.267.097.018.255-.008.255-.008-.03-.043-.05-.056-.1-.06.057-.03.114-.1.114-.205 0-.163-.063-.23-.063-.414C1.563.63 1.64.5 1.64.5c-.136.016-.204.153-.166.262-.02.004-.04-.002-.058-.02-.01.03.006.066.027.097-.017.01-.03.003-.057-.003.003.03.02.064.062.095-.123-.034-.2.06-.2.156 0 .073.05.125.095.125.015 0 .038-.006.05-.016.01.02.004.047-.005.067.034-.01.056-.032.04-.077.027-.003.048-.012.062-.03-.015-.02-.036-.032-.06-.03.018-.043-.004-.067-.035-.086 0 0 .02.086-.03.086-.023 0-.043-.008-.043-.044 0-.03.025-.074.084-.072.058.003.106.044.106.145 0 .093-.07.14-.162.143-.082.002-.145-.046-.145-.138 0-.123.164-.402.164-.512C1.37.566 1.3.52 1.233.52c-.087 0-.16.093-.16.093l.05.07z"/><path d="M1.106 2.9c0 .203.17.31.305.31.18 0 .278-.118.278-.27 0-.087-.015-.14-.052-.223 0 0-.298-.67-.414-.927-.015-.032-.02-.07-.02-.123 0-.083.076-.15.154-.153.07-.002.15.072.15.156 0 .102-.05.147-.1.147-.062 0-.087-.027-.087-.074 0-.033.014-.047.035-.047.053 0 .038.077.038.077.026-.006.048-.035.036-.07.018-.006.036-.017.05-.034-.014-.016-.03-.028-.05-.032.01-.044-.006-.066-.042-.075.008.017.008.033.006.048-.057-.017-.144.01-.144.116 0 .105.067.194.194.17-.03.017-.045.05-.05.084.024-.01.05-.01.05-.01-.015.027-.035.052-.035.107.023-.012.045-.033.075-.02-.047.1.01.238.158.27-.054-.068-.08-.14-.08-.214 0-.238.06-.278.06-.443 0-.07-.032-.144-.097-.194v.002c.043-.012.07-.035.086-.066-.098-.03-.242-.03-.32.003-.087.01-.15.084-.167.12-.018.038-.053.173 0 .293.06.133.335.764.42.963.02.043.03.088.03.136 0 .122-.103.164-.162.164-.07 0-.14-.057-.14-.13 0-.045.022-.073.055-.073.08 0 .074.073.06.12.048-.025.077-.068.07-.113.027-.004.053-.018.078-.048-.02-.026-.043-.046-.08-.047.016-.07-.027-.1-.07-.117.014.052.023.11-.058.11-.06 0-.106.012-.133.053 0-.055-.006-.273-.006-.273-.005-.082.1-.08.167-.055-.025-.094-.077-.145-.196-.132.03-.014.06-.043.06-.1 0-.076-.057-.162-.095-.187l-.02.8z"/><path d="M1.106 3.513c0-.205.17-.31.305-.31.18 0 .278.116.278.27 0 .085-.015.14-.052.222l-.414.927c-.015.032-.02.07-.02.123 0 .083.076.15.154.153.07.002.15-.072.15-.156 0-.102-.05-.148-.1-.148-.062 0-.087.028-.087.075 0 .03.014.046.035.046.053 0 .038-.078.038-.078.026.007.048.036.036.072.018.005.036.016.05.033-.014.015-.03.027-.05.03.01.045-.006.067-.042.076.008-.018.008-.034.006-.05-.057.018-.144-.01-.144-.115 0-.105.067-.193.194-.17-.03-.016-.045-.048-.05-.083.024.01.05.01.05.01-.015-.028-.035-.052-.035-.107.023.012.045.033.075.02-.047-.1.01-.238.158-.27-.054.067-.08.14-.08.214 0 .237.06.277.06.442 0 .07-.032.144-.097.194v-.003c.043.013.07.036.086.067-.098.03-.242.03-.32-.003-.087-.01-.15-.084-.167-.12-.018-.04-.053-.173 0-.294.06-.132.335-.764.42-.962.02-.04.03-.086.03-.134 0-.122-.103-.164-.162-.164-.07 0-.14.057-.14.13 0 .045.022.072.055.072.08 0 .074-.072.06-.118.048.024.077.066.07.11.027.006.053.02.078.05-.02.026-.043.046-.08.047.016.07-.027.1-.07.115.014-.05.023-.11-.058-.11-.06 0-.106-.01-.133-.052 0 .055-.006.273-.006.273-.005.08.1.078.167.054-.025.094-.077.145-.196.132.03.013.06.043.06.1 0 .076-.057.16-.095.186l-.02-.8z"/></g><g><path d="M1.125 9.318s-.09.08-.12.04c-.05-.065.15-.393.15-.51 0-.19-.117-.24-.262-.267-.097-.018-.255.008-.255.008.03.043.05.056.1.06-.057.03-.114.1-.114.205 0 .163.063.23.063.414C.687 9.37.61 9.5.61 9.5c.136-.016.204-.153.166-.262.02-.004.04.002.058.02.01-.03-.006-.066-.027-.097.017-.01.03-.003.057.003-.003-.03-.02-.064-.062-.095.123.034.2-.06.2-.156 0-.073-.05-.125-.095-.125-.015 0-.038.006-.05.016-.01-.02-.004-.047.005-.067-.034.01-.056.032-.04.077-.027.003-.048.012-.062.03.015.02.036.032.06.03-.018.043.004.067.035.086 0 0-.02-.086.03-.086.023 0 .043.008.043.044 0 .03-.025.074-.084.072-.058-.003-.106-.044-.106-.145 0-.093.07-.14.162-.143.082-.002.145.046.145.138 0 .123-.164.402-.164.512 0 .082.07.127.136.127.087 0 .16-.093.16-.093l-.05-.07z"/><path d="M1.144 7.1c0-.203-.17-.31-.305-.31-.18 0-.278.118-.278.27 0 .087.015.14.052.223 0 0 .298.67.414.927.015.032.02.07.02.123 0 .083-.076.15-.154.153-.07.002-.15-.072-.15-.156 0-.102.05-.147.1-.147.062 0 .087.027.087.074 0 .033-.014.047-.035.047-.053 0-.038-.077-.038-.077-.026.006-.048.035-.036.07-.018.006-.036.017-.05.034.014.016.03.028.05.032-.01.044.006.066.042.075C.854 8.42.854 8.404.856 8.39c.057.017.144-.01.144-.116 0-.105-.067-.194-.194-.17.03-.017.045-.05.05-.084-.024.01-.05.01-.05.01.015-.027.035-.052.035-.107-.023.012-.045.033-.075.02.047-.1-.01-.238-.158-.27.054.068.08.14.08.214 0 .238-.06.278-.06.443 0 .07.032.144.097.194v-.002c-.043.012-.07.035-.086.066.098.03.242.03.32-.003.087-.01.15-.084.167-.12.018-.038.053-.173 0-.293-.06-.133-.335-.764-.42-.963-.02-.043-.03-.088-.03-.136 0-.122.103-.164.162-.164.07 0 .14.057.14.13 0 .045-.022.073-.055.073-.08 0-.074-.073-.06-.12-.048.025-.077.068-.07.113-.027.004-.053.018-.078.048.02.026.043.046.08.047-.016.07.027.1.07.117-.014-.052-.023-.11.058-.11.06 0 .106-.012.133-.053 0 .055.006.273.006.273.005.082-.1.08-.167.055.025.094.077.145.196.132-.03.014-.06.043-.06.1 0 .076.057.162.095.187l.02-.8z"/><path d="M1.144 6.487c0 .205-.17.31-.305.31-.18 0-.278-.116-.278-.27 0-.085.015-.14.052-.222l.414-.927c.015-.032.02-.07.02-.123 0-.083-.076-.15-.154-.153-.07-.002-.15.072-.15.156 0 .102.05.148.1.148.062 0 .087-.028.087-.075 0-.03-.014-.046-.035-.046-.053 0-.038.078-.038.078C.83 5.355.81 5.326.82 5.29c-.018-.005-.036-.016-.05-.033.014-.015.03-.027.05-.03-.01-.045.006-.067.042-.076-.008.018-.008.034-.006.05.057-.018.144.01.144.115 0 .105-.067.193-.194.17.03.016.045.048.05.083-.024-.01-.05-.01-.05-.01.015.028.035.052.035.107-.023-.012-.045-.033-.075-.02.047.1-.01.238-.158.27.054-.067.08-.14.08-.214 0-.237-.06-.277-.06-.442 0-.07.032-.144.097-.194v.003C.68 5.054.654 5.03.638 5c.098-.03.242-.03.32.003.087.01.15.084.167.12.018.04.053.173 0 .294-.06.132-.335.764-.42.962-.02.04-.03.086-.03.134 0 .122.103.164.162.164.07 0 .14-.057.14-.13 0-.045-.022-.072-.055-.072-.08 0-.074.072-.06.118-.048-.024-.077-.066-.07-.11-.027-.006-.053-.02-.078-.05.02-.026.043-.046.08-.047-.016-.07.027-.1.07-.115-.014.05-.023.11.058.11.06 0 .106.01.133.052 0-.055.006-.273.006-.273.005-.08-.1-.078-.167-.054.025-.094.077-.145.196-.132-.03-.013-.06-.043-.06-.1 0-.076.057-.16.095-.186l.02.8z"/><g><path d="M1.125 9.318s.09.08.12.04c.05-.065-.15-.393-.15-.51 0-.19.117-.24.262-.267.097-.018.255.008.255.008-.03.043-.05.056-.1.06.057.03.114.1.114.205 0 .163-.063.23-.063.414 0 .102.078.232.078.232-.136-.016-.204-.153-.166-.262-.02-.004-.04.002-.058.02-.01-.03.006-.066.027-.097-.017-.01-.03-.003-.057.003.003-.03.02-.064.062-.095-.123.034-.2-.06-.2-.156 0-.073.05-.125.095-.125.015 0 .038.006.05.016.01-.02.004-.047-.005-.067.034.01.056.032.04.077.027.003.048.012.062.03-.015.02-.036.032-.06.03.018.043-.004.067-.035.086 0 0 .02-.086-.03-.086-.023 0-.043.008-.043.044 0 .03.025.074.084.072.058-.003.106-.044.106-.145 0-.093-.07-.14-.162-.143-.082-.002-.145.046-.145.138 0 .123.164.402.164.512 0 .082-.07.127-.136.127-.087 0-.16-.093-.16-.093l.05-.07z"/><path d="M1.106 7.1c0-.203.17-.31.305-.31.18 0 .278.118.278.27 0 .087-.015.14-.052.223 0 0-.298.67-.414.927-.015.032-.02.07-.02.123 0 .083.076.15.154.153.07.002.15-.072.15-.156 0-.102-.05-.147-.1-.147-.062 0-.087.027-.087.074 0 .033.014.047.035.047.053 0 .038-.077.038-.077.026.006.048.035.036.07.018.006.036.017.05.034-.014.016-.03.028-.05.032.01.044-.006.066-.042.075.008-.017.008-.033.006-.048-.057.017-.144-.01-.144-.116 0-.105.067-.194.194-.17-.03-.017-.045-.05-.05-.084.024.01.05.01.05.01-.015-.027-.035-.052-.035-.107.023.012.045.033.075.02-.047-.1.01-.238.158-.27-.054.068-.08.14-.08.214 0 .238.06.278.06.443 0 .07-.032.144-.097.194v-.002c.043.012.07.035.086.066-.098.03-.242.03-.32-.003-.087-.01-.15-.084-.167-.12-.018-.038-.053-.173 0-.293.06-.133.335-.764.42-.963.02-.043.03-.088.03-.136 0-.122-.103-.164-.162-.164-.07 0-.14.057-.14.13 0 .045.022.073.055.073.08 0 .074-.073.06-.12.048.025.077.068.07.113.027.004.053.018.078.048-.02.026-.043.046-.08.047.016.07-.027.1-.07.117.014-.052.023-.11-.058-.11-.06 0-.106-.012-.133-.053 0 .055-.006.273-.006.273-.005.082.1.08.167.055-.025.094-.077.145-.196.132.03.014.06.043.06.1 0 .076-.057.162-.095.187l-.02-.8z"/><path d="M1.106 6.487c0 .205.17.31.305.31.18 0 .278-.116.278-.27 0-.085-.015-.14-.052-.222l-.414-.927c-.015-.032-.02-.07-.02-.123 0-.083.076-.15.154-.153.07-.002.15.072.15.156 0 .102-.05.148-.1.148-.062 0-.087-.028-.087-.075 0-.03.014-.046.035-.046.053 0 .038.078.038.078.026-.007.048-.036.036-.072.018-.005.036-.016.05-.033-.014-.015-.03-.027-.05-.03.01-.045-.006-.067-.042-.076.008.018.008.034.006.05-.057-.018-.144.01-.144.115 0 .105.067.193.194.17-.03.016-.045.048-.05.083.024-.01.05-.01.05-.01-.015.028-.035.052-.035.107.023-.012.045-.033.075-.02-.047.1.01.238.158.27-.054-.067-.08-.14-.08-.214 0-.237.06-.277.06-.442 0-.07-.032-.144-.097-.194v.003c.043-.013.07-.036.086-.067-.098-.03-.242-.03-.32.003-.087.01-.15.084-.167.12-.018.04-.053.173 0 .294.06.132.335.764.42.962.02.04.03.086.03.134 0 .122-.103.164-.162.164-.07 0-.14-.057-.14-.13 0-.045.022-.072.055-.072.08 0 .074.072.06.118.048-.024.077-.066.07-.11.027-.006.053-.02.078-.05-.02-.026-.043-.046-.08-.047.016-.07-.027-.1-.07-.115.014.05.023.11-.058.11-.06 0-.106.01-.133.052 0-.055-.006-.273-.006-.273-.005-.08.1-.078.167-.054-.025-.094-.077-.145-.196-.132.03-.013.06-.043.06-.1 0-.076-.057-.16-.095-.186l-.02.8z"/></g></g></g></g>
    </symbol>
    <symbol id="icon_flag-ltv" viewBox="0 0 15 10">
      <title>flag/ltv</title><g fill-rule="nonzero" fill="none"><path fill="#9E3039" d="M0 0h15v10H0"/><path fill="#FFF" d="M0 3.535h15v3.128H0"/></g>
    </symbol>
    <symbol id="icon_flag-rus" viewBox="0 0 15 10">
      <title>rus-clear</title><g fill="none" fill-rule="evenodd"><path fill="#FFF" d="M0 0h15v5H0z"/><path fill="#D52B1E" fill-rule="nonzero" d="M0 5h15v5H0z"/><path fill="#0039A6" fill-rule="nonzero" d="M0 3.333h15v3.333H0z"/></g>
    </symbol>
    <symbol id="icon_flag-ua" viewBox="0 0 15 10">
      <title>flag/ua</title><g fill-rule="nonzero" fill="none"><path fill="#3972C2" d="M0 0h15v5H0z"/><path fill="#F9DF37" d="M0 5h15v5H0z"/></g>
    </symbol>
    <symbol id="icon_icon_arrow-blue" viewBox="0 0 14 9">
      <title>95848C9B-2033-4974-ACA3-36DB05AAB0E3</title><defs><path d="M13.81 4.07L9.642.178c-.254-.237-.666-.237-.92 0-.255.238-.255.623 0 .86l3.054 2.854H.65c-.36 0-.65.272-.65.608 0 .336.29.608.65.608h11.127L8.723 7.962c-.255.237-.255.622 0 .86.127.12.293.178.46.178.167 0 .333-.06.46-.178L13.81 4.93c.254-.238.254-.623 0-.86z" id="a"/></defs><use fill="#13B5EA" transform="matrix(-1 0 0 1 14 0)" xlink:href="#a" fill-rule="evenodd"/>
    </symbol>
    <symbol id="icon_icon_arrow-grey" viewBox="0 0 13 10">
      <title>8D33C483-C321-4E23-9DA3-BC4E85EB81CF</title><defs><path d="M12.823 4.522L8.953.198c-.235-.264-.617-.264-.853 0-.237.264-.237.692 0 .955l2.836 3.17H.604C.27 4.324 0 4.628 0 5c0 .373.27.676.604.676h10.332L8.1 8.846c-.236.264-.236.692 0 .956.118.132.272.198.427.198.155 0 .31-.066.427-.198l3.87-4.324c.235-.264.235-.692 0-.956z" id="a"/></defs><use fill="#999" xlink:href="#a" fill-rule="evenodd"/>
    </symbol>
    <symbol id="icon_icon_arrow-white" viewBox="0 0 12 8">
      <title>41A93307-72CA-43C2-99CA-608DAAF725D1</title><defs><path d="M11.837 3.618L8.267.158c-.22-.21-.573-.21-.79 0-.218.21-.218.554 0 .765l2.618 2.536H.558C.25 3.46 0 3.7 0 4c0 .298.25.54.558.54h9.537L7.477 7.078c-.218.21-.218.554 0 .765.108.105.25.158.394.158.144 0 .287-.053.396-.158l3.57-3.46c.218-.21.218-.553 0-.764z" id="a"/></defs><use fill="#FFF" xlink:href="#a" fill-rule="evenodd"/>
    </symbol>
    <symbol id="icon_icon_cup-blue" viewBox="0 0 50 60">
      <title>561AB14C-5061-45BC-8B2E-8667ACBCF23E</title><g fill-rule="nonzero" fill="#13B5EA" opacity=".5"><path d="M42.623 2.105c-.576 0-1.17.075-1.763.22l.456 1.85c3.616-.884 6.77 1.857 6.77 5.28 0 8.013-9.16 13.92-12.98 15.03l.537 1.83C40.493 24.904 50 18.306 50 9.456c0-4.054-3.31-7.35-7.377-7.35zM1.912 9.453c0-3.42 3.153-6.166 6.77-5.277l.458-1.85C4.354 1.152 0 4.825 0 9.452c0 8.852 9.508 15.45 14.357 16.863l.537-1.83c-3.82-1.113-12.982-7.018-12.982-15.033zM28.835 34.737H22.23c-.527 0-.953.406-.953.908v3.447c0 .273.13.534.354.706.17.132.383.202.6.202.066 0 .133-.007.2-.02 1.962-.405 4.243-.405 6.204 0 .282.055.575-.01.8-.182.223-.172.353-.43.353-.706v-3.447c0-.502-.425-.908-.952-.908zm-.953 3.272c-1.525-.202-3.175-.202-4.7 0v-1.457h4.7v1.456zM38.408 54.737H12.656c-.526 0-.954.413-.954.924v3.416c0 .51.428.924.954.924h25.752c.527 0 .954-.413.954-.924V55.66c0-.51-.427-.923-.954-.923zm-.954 3.414H13.61v-1.564h23.844v1.565z"/><path d="M36.276 41.053H13.724c-.53 0-.958.41-.958.916v12.904c0 .506.43.915.958.915h22.552c.53 0 .958-.41.958-.916V41.97c0-.508-.428-.917-.958-.917zm-.96 12.905H14.684V42.885h20.634v11.073z"/><path d="M33.072 45.263h-15.08c-.536 0-.97.407-.97.91v5.548c0 .504.434.912.97.912h15.08c.536 0 .97-.41.97-.91v-5.548c0-.504-.433-.91-.97-.91zm-.97 5.547H18.96v-3.725h13.14v3.725zM41.032.47c-.3-.303-.7-.47-1.128-.47H9.036C8.61 0 8.21.166 7.91.467c-.3.302-.465.7-.463 1.126.006.636.032 1.262.06 1.975.024.576.057 1.146.096 1.713.47 6.923 2.02 13.247 4.485 18.29.363.743.755 1.47 1.164 2.16 1.883 3.18 4.04 5.46 6.412 6.782.25.138.546.156.805.053.217.008.463.008.74.008h7.275c.106.04.218.06.33.06.158 0 .316-.04.46-.12 2.37-1.32 4.53-3.602 6.412-6.782.406-.688.797-1.414 1.162-2.157 2.467-5.047 4.017-11.372 4.485-18.29.038-.568.07-1.136.094-1.717.026-.653.053-1.307.06-1.97.005-.423-.158-.823-.458-1.126zm-1.48 3.022c-.025.56-.055 1.113-.093 1.664-.452 6.68-1.94 12.766-4.302 17.598-.342.7-.71 1.382-1.09 2.028-1.604 2.708-3.467 4.747-5.405 5.92H21.21c.002.002-.63 0-.933 0-1.94-1.174-3.802-3.212-5.404-5.92-.384-.65-.75-1.33-1.092-2.028-2.36-4.83-3.848-10.915-4.3-17.598-.037-.55-.07-1.105-.095-1.75-.02-.51-.043-1.02-.052-1.537h30.272c-.01.544-.032 1.082-.054 1.622z"/><path d="M36.335 4.21c-.015.3-.033.584-.053.864-.41 5.928-1.794 11.516-3.9 15.733-.295.59-.615 1.173-.952 1.732-1.164 1.924-2.468 3.418-3.77 4.322l1.14 1.56c1.525-1.06 3.02-2.757 4.324-4.912.363-.604.71-1.23 1.025-1.866C36.36 17.21 37.815 11.37 38.242 5.2c.02-.29.037-.58.055-.89l-1.963-.1zM28.97 30.526h-6.923c-1.67 0-1.834 3.234-1.834 3.267 0 .03.194 3.05 1.88 3.05h6.923c1.64 0 1.835-3.02 1.835-3.05 0-.033-.165-3.267-1.88-3.267zm-.36 4.334h-6.156c-.13-.325-.255-.865-.26-1.066.004-.24.148-.903.29-1.286h6.095c.142.383.285 1.045.288 1.284-.003.203-.13.744-.26 1.068zM29.023 38.253c-2.217-.477-4.764-.48-6.982 0-3.142.68-5.02 2.16-5.02 3.957 0 .524.426.948.95.948h15.124c.523 0 .95-.424.95-.948 0-1.798-1.878-3.277-5.02-3.957zm-9.434 3.01c.585-.442 1.547-.874 2.852-1.157 1.955-.42 4.228-.42 6.18 0 1.305.283 2.267.715 2.853 1.156H19.59z"/></g>
    </symbol>
    <symbol id="icon_icon_fb" viewBox="0 0 8 17">
      <title>6E719D1A-5E82-45E2-9A68-951A09F79A44</title><path d="M1.87 3.292v2.34H.143v2.863h1.73V17h3.55V8.495h2.384s.224-1.372.332-2.873H5.436V3.665c0-.292.388-.685.77-.685h1.936V0H5.51C1.783 0 1.87 2.865 1.87 3.292z" fill-rule="nonzero" fill="#13B5EA"/>
    </symbol>
    <symbol id="icon_icon_heart" viewBox="0 0 113 113">
      <title>DD8CA4FB-A606-43AF-88A3-6C7F044AE551</title><path d="M90.402 30.382c-14.286-18.176-42.4-7.45-42.4 11.007 0-18.46-28.116-29.185-42.404-11.008C-9.17 49.172 5.386 82.092 48 101c42.614-18.91 57.17-51.827 42.402-70.618z" fill="#EE3522" fill-rule="nonzero"/>
    </symbol>
    <symbol id="icon_icon_new-window" viewBox="0 0 13 12">
      <title>2B8C969B-2678-462C-8A98-0911E49B7E54</title><path d="M6.267.995L6.235 2.81l2.94.053-7.27 6.896 1.06 1.18 7.178-6.933-.052 2.94 1.816.03.103-5.882" fill="#FFF" fill-rule="nonzero"/>
    </symbol>
    <symbol id="icon_icon_photo" viewBox="0 0 12 10">
      <title>8D299A27-411A-4811-9732-F13FD5CE128B</title><g fill="#FFF" fill-rule="nonzero"><path d="M11.21 1.99c-.303-.3-.67-.45-1.1-.45H8.75L8.44.72C8.363.526 8.223.357 8.018.214 7.813.07 7.604 0 7.388 0H4.28c-.215 0-.425.07-.63.213-.204.143-.344.312-.42.508l-.31.82H1.555c-.43 0-.796.15-1.1.45C.152 2.29 0 2.65 0 3.076v5.385c0 .424.152.787.456 1.087.304.3.67.45 1.1.45h8.555c.43 0 .797-.15 1.1-.45.305-.3.457-.664.457-1.088V3.077c0-.425-.152-.787-.456-1.088zM7.758 7.67c-.533.528-1.174.792-1.924.792s-1.39-.264-1.923-.79c-.533-.527-.8-1.162-.8-1.903 0-.742.268-1.376.8-1.903.533-.527 1.174-.79 1.923-.79.75 0 1.39.264 1.924.79.532.527.8 1.16.8 1.902 0 .74-.268 1.374-.8 1.9z"/><path d="M5.833 4.167c-.46 0-.85.163-1.177.49-.326.325-.49.717-.49 1.176 0 .46.164.852.49 1.178.326.327.718.49 1.177.49.46 0 .852-.163 1.178-.49.327-.325.49-.717.49-1.177 0-.46-.163-.85-.49-1.177-.325-.326-.718-.49-1.177-.49z"/></g>
    </symbol>
    <symbol id="icon_icon_play" viewBox="0 0 62 62">
      <title>61C45CCD-AE96-41CF-9E17-E61A4E90FCDB</title><g transform="translate(1 1)" fill="none" fill-rule="evenodd"><path fill="#FFF" d="M22.245 16.82v28.546l22.888-14.272"/><circle stroke="#FFF" stroke-width="2" cx="30" cy="30" r="30"/></g>
    </symbol>
    <symbol id="icon_icon_point-blue" viewBox="0 0 9 13">
      <title>5B7A3AF0-7BE2-4E46-9433-CAA04F92CE26</title><path d="M4.5 0C2.016 0 0 1.964 0 4.387c0 1.24 1.24 3.46 1.24 3.46L4.334 13l3.23-5.093S9 5.79 9 4.387C9 1.964 6.985 0 4.5 0zm0 6.384c-1.066 0-1.93-.846-1.93-1.893 0-1.044.864-1.89 1.93-1.89 1.065 0 1.93.846 1.93 1.89 0 1.048-.865 1.894-1.93 1.894z" fill="#13b5ea" fill-rule="nonzero"/>
    </symbol>
    <symbol id="icon_icon_point" viewBox="0 0 9 13">
      <title>5B7A3AF0-7BE2-4E46-9433-CAA04F92CE26</title><path d="M4.5 0C2.016 0 0 1.964 0 4.387c0 1.24 1.24 3.46 1.24 3.46L4.334 13l3.23-5.093S9 5.79 9 4.387C9 1.964 6.985 0 4.5 0zm0 6.384c-1.066 0-1.93-.846-1.93-1.893 0-1.044.864-1.89 1.93-1.89 1.065 0 1.93.846 1.93 1.89 0 1.048-.865 1.894-1.93 1.894z" fill="#999" fill-rule="nonzero"/>
    </symbol>
    <symbol id="icon_icon_team-logo" viewBox="0 0 300 300">
      <title>773DBEC9-4A82-4114-BC65-C8B9A090E358</title><g fill="none" fill-rule="evenodd"><path d="M222.982 149.616c0 40.62-32.93 73.55-73.55 73.55-40.614 0-73.543-32.93-73.543-73.55s32.928-73.55 73.543-73.55c40.62 0 73.55 32.93 73.55 73.55" fill="#FFFFFE"/><path d="M228.47 151.062l.032-1.43c0-1.908-.093-3.79-.218-5.66 39.092-6.994 58.483-27.628 66.68-56.008 0 0-25.384 21.845-73.38 29.012-10.455-23.51-31.837-41.03-57.648-45.954l-.91-.17 3.13 11.772c29.65 7.658 51.573 34.75 51.573 67.01 0 38.197-30.743 69.162-68.68 69.162-37.93 0-68.683-30.965-68.683-69.163.006-32.258 21.922-59.35 51.573-67.01l3.136-11.77-.97.18c-25.746 4.942-47.08 22.396-57.54 45.845C29.028 109.608 3.9 87.964 3.9 87.964c8.144 28.2 27.333 48.763 65.93 55.876-.137 1.92-.23 3.84-.23 5.793l.033 1.282c-24.11-4.73-41.45-12.65-51.998-23.755 6 25.15 24.725 41.176 56.138 48.05.812 2.42 1.734 4.783 2.76 7.09-17.717-2.204-31.642-7.39-41.733-15.567 7.195 22.063 26.395 32.574 54 35.018 14.575 17.068 36.153 27.895 60.25 27.895 24.072 0 45.617-10.794 60.192-27.823 28.047-2.307 47.558-12.807 54.823-35.09-10.25 8.297-24.436 13.517-42.534 15.677 1.02-2.286 1.932-4.626 2.745-7.02 31.91-6.786 50.896-22.86 56.956-48.23-10.663 11.215-28.26 19.178-52.76 23.902" fill="#D8232A"/><path d="M149.05 56.06c-36.67 0-68.372 21.398-83.48 52.478 4.94 1.09 9.097 1.604 14.083 2.177 11.405-20.59 31.565-35.59 55.423-39.862l-33.414 125.574h27.17l3.43-14.525h33.573l3.436 14.525h27.165L163.02 70.847c24.033 4.304 44.313 19.495 55.675 40.31 4.69-.76 9.256-1.462 13.91-2.477-15.083-31.15-46.823-52.62-83.554-52.62zm-11.705 104.33l11.706-49.56 11.706 49.56h-23.41zm65.22 48.294c-14.12 12.992-32.89 20.934-53.52 20.934-21.032 0-40.145-8.253-54.354-21.693-6.926.006-13.014-.56-19.82-1.98 16.957 22.61 43.87 37.228 74.175 37.228 30.22 0 57.06-14.542 74.03-37.048-6.453 1.293-13.937 2.22-20.51 2.56z" fill="#1A1919"/></g>
    </symbol>
    <symbol id="icon_icon_tw" viewBox="0 0 18 15">
      <title>F59DA658-24BF-47A9-BB2C-7AED3982BC36</title><path d="M17.342 2.356c-.626.282-1.297.472-2.003.557.72-.437 1.27-1.13 1.532-1.955-.676.405-1.42.7-2.216.86C14.02 1.127 13.116.7 12.11.7c-1.925 0-3.487 1.583-3.487 3.535 0 .277.03.547.09.805-2.897-.147-5.467-1.555-7.187-3.694-.3.52-.472 1.13-.472 1.777 0 1.227.617 2.31 1.55 2.943-.57-.02-1.108-.18-1.578-.444v.044c0 1.712 1.202 3.142 2.797 3.467-.292.08-.6.124-.92.124-.224 0-.442-.023-.656-.066.444 1.407 1.732 2.43 3.257 2.457-1.193.947-2.697 1.51-4.33 1.51-.282 0-.56-.017-.832-.048 1.543 1.004 3.376 1.59 5.345 1.59 6.415 0 9.922-5.387 9.922-10.06l-.013-.457c.686-.495 1.278-1.118 1.745-1.827z" fill-rule="nonzero" fill="#13B5EA"/>
    </symbol>
    <symbol id="icon_icon_vk" viewBox="0 0 21 12">
      <title>660C388C-288D-4AD8-A092-50E1903E6A9E</title><path d="M18.005 7.394c.663.63 1.363 1.222 1.958 1.915.263.307.512.625.702.982.27.508.026 1.067-.443 1.098l-2.914-.002c-.75.06-1.35-.233-1.855-.732-.403-.4-.777-.825-1.165-1.238-.16-.168-.325-.327-.524-.453-.398-.25-.743-.174-.97.23-.232.41-.284.864-.307 1.32-.03.667-.24.843-.928.873-1.474.068-2.87-.15-4.17-.87C6.245 9.88 5.357 8.98 4.585 7.963 3.08 5.984 1.928 3.806.893 1.568.66 1.064.83.794 1.403.784c.95-.018 1.9-.017 2.852 0 .386.004.642.22.79.574.516 1.23 1.145 2.398 1.935 3.482.21.29.424.577.73.78.338.225.595.15.754-.215.1-.232.145-.482.168-.73.075-.855.085-1.708-.047-2.56-.08-.532-.39-.876-.935-.976-.278-.052-.237-.153-.102-.308C7.782.566 8.002.4 8.44.4h3.294c.52.1.634.326.705.833l.002 3.555c-.006.196.1.778.464.908.29.093.483-.134.658-.313.788-.813 1.35-1.774 1.854-2.77.223-.437.414-.892.6-1.346.138-.337.354-.503.745-.495l3.17.003c.093 0 .188 0 .28.016.533.09.68.313.514.82-.26.795-.765 1.457-1.26 2.123-.528.71-1.093 1.397-1.617 2.112-.482.653-.444.982.155 1.55z" fill="#13B5EA" fill-rule="evenodd"/>
    </symbol>
    <symbol id="icon_logo-amour" viewBox="0 0 80 80">
      <title>C222667F-7BA4-4316-AB60-1088BDCDA927</title><g fill="none" fill-rule="evenodd"><path fill="#FFFFFE" d="M79.958 56.08l-14.8-16.435h-3.35L40.295 15.75 18.78 39.646h-3.348L.632 56.083l79.326-.002"/><path d="M41.412 18.844l-1.117-1.24-2.792 3.1 1.117 1.24 2.792-3.1zm-1.117 4.96l2.79-3.1-1.116-1.24-2.792 3.1 1.117 1.24zm-15.38 17.08h1.118l6.9-7.663c-.472.97-.976 2.15-.976 2.15l.645.698-4.336 4.816h1.117l3.192-3.545.76.87c-.094.328-.286.82-.435 1.248l-5.513 6.122h-15.63l4.227-4.696h3.35l13.99-15.54v2.48l-11.758 13.06h1.117l10.91-12.118c.538.642.593 1.528.424 2.01l-9.1 10.108z" fill="#2A366F"/><path d="M55.674 40.883l4.228 4.697h2.233l-4.23-4.697h-2.23zm3.35 0l4.228 4.697h2.232l-4.227-4.697h-2.234zm-24.87-15.22v2.482c.84.923.947 2.292.573 3.083l-2.04 3.912h1.51l-.6 1.065.57.635-.387.68.374.545-.578 1.99h3.257l2.904-.75 1.405 1.578h6.716l-13.704-15.22zM55.436 45.58L35.27 23.184l-1.116 1.24 19.05 21.156h2.232zm3.35 0l-21.84-24.257-1.118 1.24L56.553 45.58h2.232zm5.82-4.697l4.23 4.697H66.6l-4.23-4.697h2.234z" fill="#C8A564"/><path fill="#2A366F" d="M77.173 54.84l-73.758.003 7.593-8.434h58.574l7.59 8.43"/><path d="M27.387 45.576h24.7l-4.23-4.693h-16.24l-4.23 4.693zM41.97 23.184l-1.116 1.24 14.82 16.46h2.233l-15.936-17.7zm19.287 17.7h-2.234l-16.495-18.32 1.117-1.24 17.612 19.56z" fill="#009949"/><path d="M15.933 49.684c-.134-.113-.27-.188-.41-.226-.138-.037-.27-.056-.4-.056l-.236.036-.21.108-.156.194c-.04.08-.06.18-.06.297v1.145c0 .117.02.217.06.296l.16.194.214.108.234.036c.126 0 .255-.018.388-.056.132-.038.273-.113.423-.225l.44.726c-.165.138-.36.242-.58.31-.22.068-.45.104-.69.104-.187 0-.376-.027-.566-.078-.19-.05-.36-.13-.51-.235-.15-.104-.274-.24-.368-.4-.092-.162-.14-.356-.14-.58v-1.525c0-.223.046-.416.137-.578.093-.163.213-.298.36-.405.15-.11.318-.188.503-.24.187-.054.375-.08.567-.08.24 0 .473.032.704.1.23.066.427.17.587.31l-.45.722M18.65 51.07h.834l-.08-.276-.325-1.115h-.023l-.324 1.114-.082.275zm1.07.764h-1.303l-.24.798H17.17l1.426-4.045h.963l1.404 4.045h-1l-.245-.798zM23.253 49.426v.963c0 .315-.017.612-.05.885-.034.273-.103.516-.208.723-.107.206-.26.374-.46.5-.203.124-.474.195-.814.21l-.14-.75c.184-.05.327-.114.428-.2.103-.083.177-.185.227-.31.048-.124.078-.267.087-.434.01-.167.015-.356.015-.573v-1.853h2.754v4.045h-.945v-3.206h-.892M27.567 51.07h.834l-.08-.276-.324-1.115h-.023l-.324 1.114-.083.275zm1.07.764h-1.304l-.24.798h-1.005l1.427-4.045h.962l1.403 4.045h-.998l-.246-.798zM33.015 51.387c0-.125-.035-.23-.11-.318-.07-.087-.188-.13-.354-.13h-.745v.863h.746c.154 0 .27-.038.348-.115.078-.074.117-.176.117-.3m-.04-1.586c0-.114-.034-.206-.1-.28-.068-.07-.19-.107-.364-.107h-.705v.732h.706c.166 0 .283-.03.355-.096.074-.063.11-.146.11-.248m1.044 1.62c0 .172-.026.333-.077.478-.05.147-.127.276-.226.385-.1.11-.223.194-.37.256-.146.06-.316.092-.508.092h-1.966v-4.045h1.89c.21 0 .39.03.538.09.15.06.273.142.367.244.095.104.166.22.21.353.042.133.063.274.063.423l-.032.223-.094.227-.154.207-.22.152c.1.048.184.108.258.18l.18.235.103.26.036.242M36.36 51.07h.835l-.082-.276-.324-1.115h-.024l-.323 1.114-.082.275zm1.07.764h-1.304l-.24.798H34.88l1.426-4.045h.963l1.404 4.045h-.998l-.247-.798zM41.158 49.426v3.206h-.935v-3.206h-1.026v-.84h2.982v.84h-1.022M48.772 50.037c0-.117-.018-.216-.05-.297l-.13-.194-.19-.108-.22-.035-.22.035-.188.108-.133.194c-.032.08-.05.18-.05.297v1.144c0 .12.018.218.05.298l.134.193.187.11.223.036.22-.036.19-.11.128-.192c.034-.08.052-.18.052-.297v-1.143zm.933 1.315c0 .223-.04.416-.12.58-.076.166-.184.303-.323.412-.14.11-.3.192-.487.247-.184.055-.382.083-.595.083-.21 0-.406-.028-.592-.082-.182-.054-.343-.136-.483-.246-.138-.11-.247-.246-.328-.41-.08-.166-.12-.36-.12-.582v-.358h-.398v1.638h-.935v-4.045h.934v1.567h.398v-.322c0-.224.044-.415.133-.576.088-.16.203-.293.346-.4.142-.104.303-.183.486-.234.18-.05.37-.077.558-.077.193 0 .38.03.564.082.182.056.347.137.49.245.142.107.255.244.342.408.086.164.13.358.13.58v1.492zM52.27 49.426v.963c0 .315-.016.612-.05.885s-.103.516-.208.723c-.106.206-.26.374-.46.5-.204.124-.474.195-.815.21l-.14-.75c.183-.05.326-.114.43-.2.1-.083.176-.185.225-.31.048-.124.077-.267.087-.434.008-.167.014-.356.014-.573v-1.853h2.753v4.045h-.946v-3.206h-.89M56.584 51.07h.834l-.082-.276-.323-1.115h-.024l-.324 1.114-.082.275zm1.07.764h-1.305l-.242.798h-1.004l1.428-4.045h.962l1.403 4.045H57.9l-.247-.798zM59.89 48.587h2.824v.828h-1.89v.763h1.612v.827h-1.613v.798h1.89v.83H59.89v-4.046M66.06 51.387c0-.125-.037-.23-.11-.318-.072-.087-.19-.13-.354-.13h-.747v.863h.746c.152 0 .267-.038.346-.115.078-.074.117-.176.117-.3m-.042-1.586c0-.114-.033-.206-.1-.28-.066-.07-.187-.107-.364-.107h-.705v.732h.704c.165 0 .283-.03.355-.096.072-.063.108-.146.108-.248m1.045 1.62c0 .172-.025.333-.077.478-.05.147-.125.276-.226.385-.1.11-.222.194-.37.256-.146.06-.315.092-.507.092h-1.966v-4.045h1.89c.21 0 .39.03.54.09.148.06.27.142.367.244.095.104.165.22.208.353.043.133.064.274.064.423l-.032.223-.093.227-.156.207-.217.152c.098.048.184.108.256.18l.18.235.104.26.036.242M35.712 33.636v3.82l-1.17.507-.154.697 1.37-.52.682-4.058 2.054-1.81-2.782 1.364zm-1.276 1.995l-.253.455.926.92c-.09-.498-.22-1.03-.674-1.374zm-1.102-.83h1.09l.552.435v-1.24l-1.642.805zm3.09-2.983l1.428-.323-1.433-.302s-.156.31.005.625zm-.94-2.193l2.315.64-1.92.034-.395.67v-1.344z" fill="#FFFFFE"/></g>
    </symbol>
    <symbol id="icon_logo-salavat" viewBox="0 0 80 80">
      <title>C222667F-7BA4-4316-AB60-1088BDCDA927</title><g fill="none" fill-rule="evenodd"><path fill="#FFFFFE" d="M79.958 56.08l-14.8-16.435h-3.35L40.295 15.75 18.78 39.646h-3.348L.632 56.083l79.326-.002"/><path d="M41.412 18.844l-1.117-1.24-2.792 3.1 1.117 1.24 2.792-3.1zm-1.117 4.96l2.79-3.1-1.116-1.24-2.792 3.1 1.117 1.24zm-15.38 17.08h1.118l6.9-7.663c-.472.97-.976 2.15-.976 2.15l.645.698-4.336 4.816h1.117l3.192-3.545.76.87c-.094.328-.286.82-.435 1.248l-5.513 6.122h-15.63l4.227-4.696h3.35l13.99-15.54v2.48l-11.758 13.06h1.117l10.91-12.118c.538.642.593 1.528.424 2.01l-9.1 10.108z" fill="#2A366F"/><path d="M55.674 40.883l4.228 4.697h2.233l-4.23-4.697h-2.23zm3.35 0l4.228 4.697h2.232l-4.227-4.697h-2.234zm-24.87-15.22v2.482c.84.923.947 2.292.573 3.083l-2.04 3.912h1.51l-.6 1.065.57.635-.387.68.374.545-.578 1.99h3.257l2.904-.75 1.405 1.578h6.716l-13.704-15.22zM55.436 45.58L35.27 23.184l-1.116 1.24 19.05 21.156h2.232zm3.35 0l-21.84-24.257-1.118 1.24L56.553 45.58h2.232zm5.82-4.697l4.23 4.697H66.6l-4.23-4.697h2.234z" fill="#C8A564"/><path fill="#2A366F" d="M77.173 54.84l-73.758.003 7.593-8.434h58.574l7.59 8.43"/><path d="M27.387 45.576h24.7l-4.23-4.693h-16.24l-4.23 4.693zM41.97 23.184l-1.116 1.24 14.82 16.46h2.233l-15.936-17.7zm19.287 17.7h-2.234l-16.495-18.32 1.117-1.24 17.612 19.56z" fill="#009949"/><path d="M15.933 49.684c-.134-.113-.27-.188-.41-.226-.138-.037-.27-.056-.4-.056l-.236.036-.21.108-.156.194c-.04.08-.06.18-.06.297v1.145c0 .117.02.217.06.296l.16.194.214.108.234.036c.126 0 .255-.018.388-.056.132-.038.273-.113.423-.225l.44.726c-.165.138-.36.242-.58.31-.22.068-.45.104-.69.104-.187 0-.376-.027-.566-.078-.19-.05-.36-.13-.51-.235-.15-.104-.274-.24-.368-.4-.092-.162-.14-.356-.14-.58v-1.525c0-.223.046-.416.137-.578.093-.163.213-.298.36-.405.15-.11.318-.188.503-.24.187-.054.375-.08.567-.08.24 0 .473.032.704.1.23.066.427.17.587.31l-.45.722M18.65 51.07h.834l-.08-.276-.325-1.115h-.023l-.324 1.114-.082.275zm1.07.764h-1.303l-.24.798H17.17l1.426-4.045h.963l1.404 4.045h-1l-.245-.798zM23.253 49.426v.963c0 .315-.017.612-.05.885-.034.273-.103.516-.208.723-.107.206-.26.374-.46.5-.203.124-.474.195-.814.21l-.14-.75c.184-.05.327-.114.428-.2.103-.083.177-.185.227-.31.048-.124.078-.267.087-.434.01-.167.015-.356.015-.573v-1.853h2.754v4.045h-.945v-3.206h-.892M27.567 51.07h.834l-.08-.276-.324-1.115h-.023l-.324 1.114-.083.275zm1.07.764h-1.304l-.24.798h-1.005l1.427-4.045h.962l1.403 4.045h-.998l-.246-.798zM33.015 51.387c0-.125-.035-.23-.11-.318-.07-.087-.188-.13-.354-.13h-.745v.863h.746c.154 0 .27-.038.348-.115.078-.074.117-.176.117-.3m-.04-1.586c0-.114-.034-.206-.1-.28-.068-.07-.19-.107-.364-.107h-.705v.732h.706c.166 0 .283-.03.355-.096.074-.063.11-.146.11-.248m1.044 1.62c0 .172-.026.333-.077.478-.05.147-.127.276-.226.385-.1.11-.223.194-.37.256-.146.06-.316.092-.508.092h-1.966v-4.045h1.89c.21 0 .39.03.538.09.15.06.273.142.367.244.095.104.166.22.21.353.042.133.063.274.063.423l-.032.223-.094.227-.154.207-.22.152c.1.048.184.108.258.18l.18.235.103.26.036.242M36.36 51.07h.835l-.082-.276-.324-1.115h-.024l-.323 1.114-.082.275zm1.07.764h-1.304l-.24.798H34.88l1.426-4.045h.963l1.404 4.045h-.998l-.247-.798zM41.158 49.426v3.206h-.935v-3.206h-1.026v-.84h2.982v.84h-1.022M48.772 50.037c0-.117-.018-.216-.05-.297l-.13-.194-.19-.108-.22-.035-.22.035-.188.108-.133.194c-.032.08-.05.18-.05.297v1.144c0 .12.018.218.05.298l.134.193.187.11.223.036.22-.036.19-.11.128-.192c.034-.08.052-.18.052-.297v-1.143zm.933 1.315c0 .223-.04.416-.12.58-.076.166-.184.303-.323.412-.14.11-.3.192-.487.247-.184.055-.382.083-.595.083-.21 0-.406-.028-.592-.082-.182-.054-.343-.136-.483-.246-.138-.11-.247-.246-.328-.41-.08-.166-.12-.36-.12-.582v-.358h-.398v1.638h-.935v-4.045h.934v1.567h.398v-.322c0-.224.044-.415.133-.576.088-.16.203-.293.346-.4.142-.104.303-.183.486-.234.18-.05.37-.077.558-.077.193 0 .38.03.564.082.182.056.347.137.49.245.142.107.255.244.342.408.086.164.13.358.13.58v1.492zM52.27 49.426v.963c0 .315-.016.612-.05.885s-.103.516-.208.723c-.106.206-.26.374-.46.5-.204.124-.474.195-.815.21l-.14-.75c.183-.05.326-.114.43-.2.1-.083.176-.185.225-.31.048-.124.077-.267.087-.434.008-.167.014-.356.014-.573v-1.853h2.753v4.045h-.946v-3.206h-.89M56.584 51.07h.834l-.082-.276-.323-1.115h-.024l-.324 1.114-.082.275zm1.07.764h-1.305l-.242.798h-1.004l1.428-4.045h.962l1.403 4.045H57.9l-.247-.798zM59.89 48.587h2.824v.828h-1.89v.763h1.612v.827h-1.613v.798h1.89v.83H59.89v-4.046M66.06 51.387c0-.125-.037-.23-.11-.318-.072-.087-.19-.13-.354-.13h-.747v.863h.746c.152 0 .267-.038.346-.115.078-.074.117-.176.117-.3m-.042-1.586c0-.114-.033-.206-.1-.28-.066-.07-.187-.107-.364-.107h-.705v.732h.704c.165 0 .283-.03.355-.096.072-.063.108-.146.108-.248m1.045 1.62c0 .172-.025.333-.077.478-.05.147-.125.276-.226.385-.1.11-.222.194-.37.256-.146.06-.315.092-.507.092h-1.966v-4.045h1.89c.21 0 .39.03.54.09.148.06.27.142.367.244.095.104.165.22.208.353.043.133.064.274.064.423l-.032.223-.093.227-.156.207-.217.152c.098.048.184.108.256.18l.18.235.104.26.036.242M35.712 33.636v3.82l-1.17.507-.154.697 1.37-.52.682-4.058 2.054-1.81-2.782 1.364zm-1.276 1.995l-.253.455.926.92c-.09-.498-.22-1.03-.674-1.374zm-1.102-.83h1.09l.552.435v-1.24l-1.642.805zm3.09-2.983l1.428-.323-1.433-.302s-.156.31.005.625zm-.94-2.193l2.315.64-1.92.034-.395.67v-1.344z" fill="#FFFFFE"/></g>
    </symbol>
    <symbol id="icon_logo-ska" viewBox="0 0 80 80">
      <title>C222667F-7BA4-4316-AB60-1088BDCDA927</title><g fill="none" fill-rule="evenodd"><path fill="#FFFFFE" d="M79.958 56.08l-14.8-16.435h-3.35L40.295 15.75 18.78 39.646h-3.348L.632 56.083l79.326-.002"/><path d="M41.412 18.844l-1.117-1.24-2.792 3.1 1.117 1.24 2.792-3.1zm-1.117 4.96l2.79-3.1-1.116-1.24-2.792 3.1 1.117 1.24zm-15.38 17.08h1.118l6.9-7.663c-.472.97-.976 2.15-.976 2.15l.645.698-4.336 4.816h1.117l3.192-3.545.76.87c-.094.328-.286.82-.435 1.248l-5.513 6.122h-15.63l4.227-4.696h3.35l13.99-15.54v2.48l-11.758 13.06h1.117l10.91-12.118c.538.642.593 1.528.424 2.01l-9.1 10.108z" fill="#2A366F"/><path d="M55.674 40.883l4.228 4.697h2.233l-4.23-4.697h-2.23zm3.35 0l4.228 4.697h2.232l-4.227-4.697h-2.234zm-24.87-15.22v2.482c.84.923.947 2.292.573 3.083l-2.04 3.912h1.51l-.6 1.065.57.635-.387.68.374.545-.578 1.99h3.257l2.904-.75 1.405 1.578h6.716l-13.704-15.22zM55.436 45.58L35.27 23.184l-1.116 1.24 19.05 21.156h2.232zm3.35 0l-21.84-24.257-1.118 1.24L56.553 45.58h2.232zm5.82-4.697l4.23 4.697H66.6l-4.23-4.697h2.234z" fill="#C8A564"/><path fill="#2A366F" d="M77.173 54.84l-73.758.003 7.593-8.434h58.574l7.59 8.43"/><path d="M27.387 45.576h24.7l-4.23-4.693h-16.24l-4.23 4.693zM41.97 23.184l-1.116 1.24 14.82 16.46h2.233l-15.936-17.7zm19.287 17.7h-2.234l-16.495-18.32 1.117-1.24 17.612 19.56z" fill="#009949"/><path d="M15.933 49.684c-.134-.113-.27-.188-.41-.226-.138-.037-.27-.056-.4-.056l-.236.036-.21.108-.156.194c-.04.08-.06.18-.06.297v1.145c0 .117.02.217.06.296l.16.194.214.108.234.036c.126 0 .255-.018.388-.056.132-.038.273-.113.423-.225l.44.726c-.165.138-.36.242-.58.31-.22.068-.45.104-.69.104-.187 0-.376-.027-.566-.078-.19-.05-.36-.13-.51-.235-.15-.104-.274-.24-.368-.4-.092-.162-.14-.356-.14-.58v-1.525c0-.223.046-.416.137-.578.093-.163.213-.298.36-.405.15-.11.318-.188.503-.24.187-.054.375-.08.567-.08.24 0 .473.032.704.1.23.066.427.17.587.31l-.45.722M18.65 51.07h.834l-.08-.276-.325-1.115h-.023l-.324 1.114-.082.275zm1.07.764h-1.303l-.24.798H17.17l1.426-4.045h.963l1.404 4.045h-1l-.245-.798zM23.253 49.426v.963c0 .315-.017.612-.05.885-.034.273-.103.516-.208.723-.107.206-.26.374-.46.5-.203.124-.474.195-.814.21l-.14-.75c.184-.05.327-.114.428-.2.103-.083.177-.185.227-.31.048-.124.078-.267.087-.434.01-.167.015-.356.015-.573v-1.853h2.754v4.045h-.945v-3.206h-.892M27.567 51.07h.834l-.08-.276-.324-1.115h-.023l-.324 1.114-.083.275zm1.07.764h-1.304l-.24.798h-1.005l1.427-4.045h.962l1.403 4.045h-.998l-.246-.798zM33.015 51.387c0-.125-.035-.23-.11-.318-.07-.087-.188-.13-.354-.13h-.745v.863h.746c.154 0 .27-.038.348-.115.078-.074.117-.176.117-.3m-.04-1.586c0-.114-.034-.206-.1-.28-.068-.07-.19-.107-.364-.107h-.705v.732h.706c.166 0 .283-.03.355-.096.074-.063.11-.146.11-.248m1.044 1.62c0 .172-.026.333-.077.478-.05.147-.127.276-.226.385-.1.11-.223.194-.37.256-.146.06-.316.092-.508.092h-1.966v-4.045h1.89c.21 0 .39.03.538.09.15.06.273.142.367.244.095.104.166.22.21.353.042.133.063.274.063.423l-.032.223-.094.227-.154.207-.22.152c.1.048.184.108.258.18l.18.235.103.26.036.242M36.36 51.07h.835l-.082-.276-.324-1.115h-.024l-.323 1.114-.082.275zm1.07.764h-1.304l-.24.798H34.88l1.426-4.045h.963l1.404 4.045h-.998l-.247-.798zM41.158 49.426v3.206h-.935v-3.206h-1.026v-.84h2.982v.84h-1.022M48.772 50.037c0-.117-.018-.216-.05-.297l-.13-.194-.19-.108-.22-.035-.22.035-.188.108-.133.194c-.032.08-.05.18-.05.297v1.144c0 .12.018.218.05.298l.134.193.187.11.223.036.22-.036.19-.11.128-.192c.034-.08.052-.18.052-.297v-1.143zm.933 1.315c0 .223-.04.416-.12.58-.076.166-.184.303-.323.412-.14.11-.3.192-.487.247-.184.055-.382.083-.595.083-.21 0-.406-.028-.592-.082-.182-.054-.343-.136-.483-.246-.138-.11-.247-.246-.328-.41-.08-.166-.12-.36-.12-.582v-.358h-.398v1.638h-.935v-4.045h.934v1.567h.398v-.322c0-.224.044-.415.133-.576.088-.16.203-.293.346-.4.142-.104.303-.183.486-.234.18-.05.37-.077.558-.077.193 0 .38.03.564.082.182.056.347.137.49.245.142.107.255.244.342.408.086.164.13.358.13.58v1.492zM52.27 49.426v.963c0 .315-.016.612-.05.885s-.103.516-.208.723c-.106.206-.26.374-.46.5-.204.124-.474.195-.815.21l-.14-.75c.183-.05.326-.114.43-.2.1-.083.176-.185.225-.31.048-.124.077-.267.087-.434.008-.167.014-.356.014-.573v-1.853h2.753v4.045h-.946v-3.206h-.89M56.584 51.07h.834l-.082-.276-.323-1.115h-.024l-.324 1.114-.082.275zm1.07.764h-1.305l-.242.798h-1.004l1.428-4.045h.962l1.403 4.045H57.9l-.247-.798zM59.89 48.587h2.824v.828h-1.89v.763h1.612v.827h-1.613v.798h1.89v.83H59.89v-4.046M66.06 51.387c0-.125-.037-.23-.11-.318-.072-.087-.19-.13-.354-.13h-.747v.863h.746c.152 0 .267-.038.346-.115.078-.074.117-.176.117-.3m-.042-1.586c0-.114-.033-.206-.1-.28-.066-.07-.187-.107-.364-.107h-.705v.732h.704c.165 0 .283-.03.355-.096.072-.063.108-.146.108-.248m1.045 1.62c0 .172-.025.333-.077.478-.05.147-.125.276-.226.385-.1.11-.222.194-.37.256-.146.06-.315.092-.507.092h-1.966v-4.045h1.89c.21 0 .39.03.54.09.148.06.27.142.367.244.095.104.165.22.208.353.043.133.064.274.064.423l-.032.223-.093.227-.156.207-.217.152c.098.048.184.108.256.18l.18.235.104.26.036.242M35.712 33.636v3.82l-1.17.507-.154.697 1.37-.52.682-4.058 2.054-1.81-2.782 1.364zm-1.276 1.995l-.253.455.926.92c-.09-.498-.22-1.03-.674-1.374zm-1.102-.83h1.09l.552.435v-1.24l-1.642.805zm3.09-2.983l1.428-.323-1.433-.302s-.156.31.005.625zm-.94-2.193l2.315.64-1.92.034-.395.67v-1.344z" fill="#FFFFFE"/></g>
    </symbol>
    <symbol id="icon_ltv" viewBox="0 0 15 10">
      <title>53B73234-C606-4FBE-8288-635A31530C3F</title><g fill-rule="nonzero" fill="none"><path fill="#9E3039" d="M0 0h15v10H0"/><path fill="#FFF" d="M0 3.535h15v3.128H0"/></g>
    </symbol>
    <symbol id="icon_quotations" viewBox="0 0 139 122">
      <title>346E4EEE-9C1D-4C46-AD7A-41A31CFD676A</title><g fill-rule="nonzero" fill="#FFF" opacity=".162"><path d="M41.58 6.268l-4.022-2.88-.138-.106-.26-.105-2.935-1.414.086.21C31.53.82 28.614 0 25.437 0 11.38 0 0 11.96 0 26.71c0 14.754 11.397 26.713 25.436 26.713 4.507 0 8.668-1.327 12.346-3.492-1.26 14.282-8.375 35.11-34.45 56.357-3.643 2.968-4.316 8.485-1.484 12.308C3.505 120.848 5.975 122 8.462 122c1.795 0 3.59-.61 5.128-1.833C45.587 94.05 53.582 67.233 54.653 49.32c1.83-22.905-5.042-34.95-11.328-41.236L41.58 6.268zM127.345 8.083l-1.76-1.815-4.005-2.88-.414-.21-2.934-1.415C115.54.82 112.607 0 109.432 0 95.4 0 84.046 11.96 84.046 26.71c0 14.754 11.355 26.713 25.42 26.713 4.503 0 8.662-1.327 12.338-3.492-1.243 14.282-8.353 35.11-34.41 56.357-3.66 2.968-4.315 8.485-1.484 12.308 1.657 2.253 4.125 3.405 6.61 3.405 1.795 0 3.59-.61 5.125-1.833C129.64 94.05 137.612 67.233 138.7 49.32c1.83-22.905-5.04-34.952-11.355-41.237z"/></g>
    </symbol>
    <symbol id="icon_small-grey-left" viewBox="0 0 12 24">
      <title>05C45C72-8564-481C-95F9-64A70C8DB2DC</title><path d="M11.75 0L0 11.75 11.75 23.5" stroke="#999" stroke-width="2" fill="none" fill-rule="evenodd"/>
    </symbol>
    <symbol id="icon_small-grey-right" viewBox="0 0 12 24">
      <title>05C45C72-8564-481C-95F9-64A70C8DB2DC</title><path d="M11.75 0L0 11.75 11.75 23.5" stroke="#999" stroke-width="2" fill="none" fill-rule="evenodd"/>
    </symbol>
    <symbol id="icon_small-red" viewBox="0 0 13 15">
      <title>2BE34BF3-D95B-4A91-9DBE-A3E62F841F3F</title><g fill="#EE3522" fill-rule="nonzero"><path d="M7.6 9.81c0-.138-.11-.222-.242-.188 0 0-.622.162-1.08.162-.46 0-1.082-.162-1.082-.162-.133-.034-.24.05-.24.187l-.002.723c0 .137.113.25.25.25H7.35c.138 0 .25-.113.25-.25V9.81zM10.07.5c0-.276-.223-.5-.498-.5h-6.59c-.275 0-.5.224-.5.5v4.117c0 1.29.385 2.463 1.08 3.304.702.848 1.666 1.315 2.715 1.315 1.05 0 2.014-.467 2.714-1.314.698-.84 1.08-2.014 1.08-3.303V.5zM2.01 5.617c-.685-.254-1-.843-1-1.823v-2.23h.924V.566H.512c-.276 0-.5.223-.5.5v2.728c0 1.664.798 2.678 2.264 2.915-.12-.347-.21-.713-.267-1.093zM2.983 11.53c-.276 0-.5.224-.5.5v2.47c0 .277.224.5.5.5h6.59c.274 0 .498-.223.498-.5v-2.47c0-.276-.223-.5-.498-.5h-6.59zM12.042.566H10.62v.998h.923v2.23c0 .98-.314 1.57-.997 1.824-.057.38-.147.745-.268 1.09 1.466-.235 2.264-1.25 2.264-2.914v-2.73c0-.275-.224-.498-.5-.498z"/></g>
    </symbol></svg>